<?xml version="1.0" encoding="UTF-8"?>
<svg xmlns="http://www.w3.org/2000/svg" width="800.000" height="600.000" viewBox="0.0 0.0 800.000 600.000" version="1.1">
  <title>Produce by Acme CAD Converter</title>
  <desc>Produce by Acme CAD Converter</desc>
<path d="M506.31 366.11L515.11 366.11M515.11 366.11L515.11 375.27M515.11 375.27L506.31 375.27M506.31 375.27L506.31 366.11"
fill="none" stroke="fuchsia" stroke-width="0.5"/>
<path d="M515.66 375.07L515.66 375.81"
fill="none" stroke="fuchsia" stroke-width="0.5"/>
<path d="M515.66 375.81L512.73 375.81"
fill="none" stroke="fuchsia" stroke-width="0.5"/>
<path d="M515.66 375.07L516.29 375.07"
fill="none" stroke="fuchsia" stroke-width="0.5"/>
<path d="M515.66 375.07L515.04 375.07"
fill="none" stroke="fuchsia" stroke-width="0.5"/>
<path d="M512.73 375.81L512.73 375.27"
fill="none" stroke="fuchsia" stroke-width="0.5"/>
<path d="M506.31 355.79L515.11 355.79M515.11 355.79L515.11 364.95M515.11 364.95L506.31 364.95M506.31 364.95L506.31 355.79"
fill="none" stroke="fuchsia" stroke-width="0.5"/>
<path d="M515.66 364.75L515.66 365.49"
fill="none" stroke="fuchsia" stroke-width="0.5"/>
<path d="M515.66 365.49L512.73 365.49"
fill="none" stroke="fuchsia" stroke-width="0.5"/>
<path d="M515.66 364.75L516.29 364.75"
fill="none" stroke="fuchsia" stroke-width="0.5"/>
<path d="M515.66 364.75L515.04 364.75"
fill="none" stroke="fuchsia" stroke-width="0.5"/>
<path d="M512.73 365.49L512.73 364.95"
fill="none" stroke="fuchsia" stroke-width="0.5"/>
<path d="M535.02 355.88L544.97 355.88M544.97 355.88L544.97 373.15M544.97 373.15L535.02 373.15M535.02 373.15L535.02 355.88"
fill="none" stroke="fuchsia" stroke-width="0.5"/>
<path d="M536.22 354.92L536.22 354.29"
fill="none" stroke="fuchsia" stroke-width="0.5"/>
<path d="M536.22 354.92L536.22 355.55"
fill="none" stroke="fuchsia" stroke-width="0.5"/>
<path d="M536.22 354.92L536.96 354.92"
fill="none" stroke="fuchsia" stroke-width="0.5"/>
<path d="M536.96 354.92L536.96 357.85"
fill="none" stroke="fuchsia" stroke-width="0.5"/>
<path d="M536.96 357.85L536.41 357.85"
fill="none" stroke="fuchsia" stroke-width="0.5"/>
<path d="M344.86 315.73L345.05 314.97M345.05 314.97L345.57 314.39M345.57 314.39L346.3 314.11M346.3 314.11L347.08 314.2M347.08 314.2L347.72 314.65M347.72 314.65L348.09 315.34M348.09 315.34L348.09 316.13M348.09 316.13L347.72 316.82M347.72 316.82L347.08 317.26M347.08 317.26L346.3 317.36M346.3 317.36L345.57 317.08M345.57 317.08L345.05 316.5M345.05 316.5L344.86 315.73"
fill="none" stroke="fuchsia" stroke-width="0.5"/>
<path d="M383.92 347.27L384.11 346.51M384.11 346.51L384.63 345.92M384.63 345.92L385.36 345.64M385.36 345.64L386.14 345.74M386.14 345.74L386.78 346.18M386.78 346.18L387.15 346.88M387.15 346.88L387.15 347.66M387.15 347.66L386.78 348.35M386.78 348.35L386.14 348.8M386.14 348.8L385.36 348.89M385.36 348.89L384.63 348.62M384.63 348.62L384.11 348.03M384.11 348.03L383.92 347.27"
fill="none" stroke="fuchsia" stroke-width="0.5"/>
<path d="M425.04 315.73L425.23 314.97M425.23 314.97L425.75 314.39M425.75 314.39L426.48 314.11M426.48 314.11L427.26 314.2M427.26 314.2L427.91 314.65M427.91 314.65L428.27 315.34M428.27 315.34L428.27 316.13M428.27 316.13L427.91 316.82M427.91 316.82L427.26 317.26M427.26 317.26L426.48 317.36M426.48 317.36L425.75 317.08M425.75 317.08L425.23 316.5M425.23 316.5L425.04 315.73"
fill="none" stroke="fuchsia" stroke-width="0.5"/>
<path d="M464.1 347.27L464.29 346.51M464.29 346.51L464.81 345.92M464.81 345.92L465.54 345.64M465.54 345.64L466.32 345.74M466.32 345.74L466.97 346.18M466.97 346.18L467.33 346.88M467.33 346.88L467.33 347.66M467.33 347.66L466.97 348.35M466.97 348.35L466.32 348.8M466.32 348.8L465.54 348.89M465.54 348.89L464.81 348.62M464.81 348.62L464.29 348.03M464.29 348.03L464.1 347.27"
fill="none" stroke="fuchsia" stroke-width="0.5"/>
<path d="M464.1 397.17L464.29 396.41M464.29 396.41L464.81 395.83M464.81 395.83L465.54 395.55M465.54 395.55L466.32 395.64M466.32 395.64L466.97 396.09M466.97 396.09L467.33 396.78M467.33 396.78L467.33 397.56M467.33 397.56L466.97 398.26M466.97 398.26L466.32 398.7M466.32 398.7L465.54 398.8M465.54 398.8L464.81 398.52M464.81 398.52L464.29 397.93M464.29 397.93L464.1 397.17"
fill="none" stroke="fuchsia" stroke-width="0.5"/>
<path d="M544.93 397.17L545.11 396.41M545.11 396.41L545.63 395.83M545.63 395.83L546.37 395.55M546.37 395.55L547.14 395.64M547.14 395.64L547.79 396.09M547.79 396.09L548.15 396.78M548.15 396.78L548.15 397.56M548.15 397.56L547.79 398.26M547.79 398.26L547.14 398.7M547.14 398.7L546.37 398.8M546.37 398.8L545.63 398.52M545.63 398.52L545.11 397.93M545.11 397.93L544.93 397.17"
fill="none" stroke="fuchsia" stroke-width="0.5"/>
<path d="M383.28 397.17L383.47 396.41M383.47 396.41L383.99 395.83M383.99 395.83L384.72 395.55M384.72 395.55L385.5 395.64M385.5 395.64L386.14 396.09M386.14 396.09L386.51 396.78M386.51 396.78L386.51 397.56M386.51 397.56L386.14 398.26M386.14 398.26L385.5 398.7M385.5 398.7L384.72 398.8M384.72 398.8L383.99 398.52M383.99 398.52L383.47 397.93M383.47 397.93L383.28 397.17"
fill="none" stroke="fuchsia" stroke-width="0.5"/>
<path d="M310.02 397.17L310.21 396.41M310.21 396.41L310.73 395.83M310.73 395.83L311.46 395.55M311.46 395.55L312.24 395.64M312.24 395.64L312.88 396.09M312.88 396.09L313.25 396.78M313.25 396.78L313.25 397.56M313.25 397.56L312.88 398.26M312.88 398.26L312.24 398.7M312.24 398.7L311.46 398.8M311.46 398.8L310.73 398.52M310.73 398.52L310.21 397.93M310.21 397.93L310.02 397.17"
fill="none" stroke="fuchsia" stroke-width="0.5"/>
<path d="M243.45 397.17L243.63 396.41M243.63 396.41L244.15 395.83M244.15 395.83L244.88 395.55M244.88 395.55L245.66 395.64M245.66 395.64L246.31 396.09M246.31 396.09L246.67 396.78M246.67 396.78L246.67 397.56M246.67 397.56L246.31 398.26M246.31 398.26L245.66 398.7M245.66 398.7L244.88 398.8M244.88 398.8L244.15 398.52M244.15 398.52L243.63 397.93M243.63 397.93L243.45 397.17"
fill="none" stroke="fuchsia" stroke-width="0.5"/>
<path d="M202.5 397.17L202.69 396.41M202.69 396.41L203.21 395.83M203.21 395.83L203.94 395.55M203.94 395.55L204.72 395.64M204.72 395.64L205.36 396.09M205.36 396.09L205.73 396.78M205.73 396.78L205.73 397.56M205.73 397.56L205.36 398.26M205.36 398.26L204.72 398.7M204.72 398.7L203.94 398.8M203.94 398.8L203.21 398.52M203.21 398.52L202.69 397.93M202.69 397.93L202.5 397.17"
fill="none" stroke="fuchsia" stroke-width="0.5"/>
<path d="M161.56 397.17L161.75 396.41M161.75 396.41L162.27 395.83M162.27 395.83L163 395.55M163 395.55L163.78 395.64M163.78 395.64L164.42 396.09M164.42 396.09L164.79 396.78M164.79 396.78L164.79 397.56M164.79 397.56L164.42 398.26M164.42 398.26L163.78 398.7M163.78 398.7L163 398.8M163 398.8L162.27 398.52M162.27 398.52L161.75 397.93M161.75 397.93L161.56 397.17"
fill="none" stroke="fuchsia" stroke-width="0.5"/>
<path d="M344.86 478.61L345.05 477.85M345.05 477.85L345.57 477.26M345.57 477.26L346.3 476.99M346.3 476.99L347.08 477.08M347.08 477.08L347.72 477.52M347.72 477.52L348.09 478.22M348.09 478.22L348.09 479M348.09 479L347.72 479.7M347.72 479.7L347.08 480.14M347.08 480.14L346.3 480.23M346.3 480.23L345.57 479.96M345.57 479.96L345.05 479.37M345.05 479.37L344.86 478.61"
fill="none" stroke="fuchsia" stroke-width="0.5"/>
<path d="M383.92 447.08L384.11 446.32M384.11 446.32L384.63 445.73M384.63 445.73L385.36 445.45M385.36 445.45L386.14 445.55M386.14 445.55L386.78 445.99M386.78 445.99L387.15 446.68M387.15 446.68L387.15 447.47M387.15 447.47L386.78 448.16M386.78 448.16L386.14 448.61M386.14 448.61L385.36 448.7M385.36 448.7L384.63 448.42M384.63 448.42L384.11 447.84M384.11 447.84L383.92 447.08"
fill="none" stroke="fuchsia" stroke-width="0.5"/>
<path d="M425.04 478.61L425.23 477.85M425.23 477.85L425.75 477.26M425.75 477.26L426.48 476.99M426.48 476.99L427.26 477.08M427.26 477.08L427.91 477.52M427.91 477.52L428.27 478.22M428.27 478.22L428.27 479M428.27 479L427.91 479.7M427.91 479.7L427.26 480.14M427.26 480.14L426.48 480.23M426.48 480.23L425.75 479.96M425.75 479.96L425.23 479.37M425.23 479.37L425.04 478.61"
fill="none" stroke="fuchsia" stroke-width="0.5"/>
<path d="M464.1 447.08L464.29 446.32M464.29 446.32L464.81 445.73M464.81 445.73L465.54 445.45M465.54 445.45L466.32 445.55M466.32 445.55L466.97 445.99M466.97 445.99L467.33 446.68M467.33 446.68L467.33 447.47M467.33 447.47L466.97 448.16M466.97 448.16L466.32 448.61M466.32 448.61L465.54 448.7M465.54 448.7L464.81 448.42M464.81 448.42L464.29 447.84M464.29 447.84L464.1 447.08"
fill="none" stroke="fuchsia" stroke-width="0.5"/>
<path d="M541.4 478.61L541.59 477.85M541.59 477.85L542.11 477.26M542.11 477.26L542.84 476.99M542.84 476.99L543.62 477.08M543.62 477.08L544.27 477.52M544.27 477.52L544.63 478.22M544.63 478.22L544.63 479M544.63 479L544.27 479.7M544.27 479.7L543.62 480.14M543.62 480.14L542.84 480.23M542.84 480.23L542.11 479.96M542.11 479.96L541.59 479.37M541.59 479.37L541.4 478.61"
fill="none" stroke="fuchsia" stroke-width="0.5"/>
<path d="M502.34 447.08L502.53 446.32M502.53 446.32L503.05 445.73M503.05 445.73L503.78 445.45M503.78 445.45L504.56 445.55M504.56 445.55L505.21 445.99M505.21 445.99L505.57 446.68M505.57 446.68L505.57 447.47M505.57 447.47L505.21 448.16M505.21 448.16L504.56 448.61M504.56 448.61L503.78 448.7M503.78 448.7L503.05 448.42M503.05 448.42L502.53 447.84M502.53 447.84L502.34 447.08"
fill="none" stroke="fuchsia" stroke-width="0.5"/>
<path d="M537.99 330.87L538.18 330.11M538.18 330.11L538.7 329.53M538.7 329.53L539.43 329.25M539.43 329.25L540.21 329.34M540.21 329.34L540.85 329.79M540.85 329.79L541.22 330.48M541.22 330.48L541.22 331.26M541.22 331.26L540.85 331.96M540.85 331.96L540.21 332.4M540.21 332.4L539.43 332.5M539.43 332.5L538.7 332.22M538.7 332.22L538.18 331.63M538.18 331.63L537.99 330.87"
fill="none" stroke="fuchsia" stroke-width="0.5"/>
<path d="M554.47 330.87L554.66 330.11M554.66 330.11L555.18 329.53M555.18 329.53L555.91 329.25M555.91 329.25L556.69 329.34M556.69 329.34L557.33 329.79M557.33 329.79L557.69 330.48M557.69 330.48L557.69 331.26M557.69 331.26L557.33 331.96M557.33 331.96L556.69 332.4M556.69 332.4L555.91 332.5M555.91 332.5L555.18 332.22M555.18 332.22L554.66 331.63M554.66 331.63L554.47 330.87"
fill="none" stroke="fuchsia" stroke-width="0.5"/>
<path d="M508.68 330.87L508.87 330.11M508.87 330.11L509.39 329.53M509.39 329.53L510.12 329.25M510.12 329.25L510.9 329.34M510.9 329.34L511.54 329.79M511.54 329.79L511.91 330.48M511.91 330.48L511.91 331.26M511.91 331.26L511.54 331.96M511.54 331.96L510.9 332.4M510.9 332.4L510.12 332.5M510.12 332.5L509.39 332.22M509.39 332.22L508.87 331.63M508.87 331.63L508.68 330.87"
fill="none" stroke="fuchsia" stroke-width="0.5"/>
<path d="M492.21 330.87L492.39 330.11M492.39 330.11L492.91 329.53M492.91 329.53L493.64 329.25M493.64 329.25L494.42 329.34M494.42 329.34L495.07 329.79M495.07 329.79L495.43 330.48M495.43 330.48L495.43 331.26M495.43 331.26L495.07 331.96M495.07 331.96L494.42 332.4M494.42 332.4L493.64 332.5M493.64 332.5L492.91 332.22M492.91 332.22L492.39 331.63M492.39 331.63L492.21 330.87"
fill="none" stroke="fuchsia" stroke-width="0.5"/>
<path d="M623.48 397.17L623.66 396.41M623.66 396.41L624.18 395.83M624.18 395.83L624.92 395.55M624.92 395.55L625.69 395.64M625.69 395.64L626.34 396.09M626.34 396.09L626.7 396.78M626.7 396.78L626.7 397.56M626.7 397.56L626.34 398.26M626.34 398.26L625.69 398.7M625.69 398.7L624.92 398.8M624.92 398.8L624.18 398.52M624.18 398.52L623.66 397.93M623.66 397.93L623.48 397.17"
fill="none" stroke="fuchsia" stroke-width="0.5"/>
<path d="M580.33 352.01L580.52 351.25M580.52 351.25L581.04 350.66M581.04 350.66L581.77 350.38M581.77 350.38L582.55 350.48M582.55 350.48L583.19 350.92M583.19 350.92L583.56 351.62M583.56 351.62L583.56 352.4M583.56 352.4L583.19 353.09M583.19 353.09L582.55 353.54M582.55 353.54L581.77 353.63M581.77 353.63L581.04 353.36M581.04 353.36L580.52 352.77M580.52 352.77L580.33 352.01"
fill="none" stroke="fuchsia" stroke-width="0.5"/>
<path d="M666.62 352.01L666.81 351.25M666.81 351.25L667.33 350.66M667.33 350.66L668.06 350.38M668.06 350.38L668.84 350.48M668.84 350.48L669.48 350.92M669.48 350.92L669.85 351.62M669.85 351.62L669.85 352.4M669.85 352.4L669.48 353.09M669.48 353.09L668.84 353.54M668.84 353.54L668.06 353.63M668.06 353.63L667.33 353.36M667.33 353.36L666.81 352.77M666.81 352.77L666.62 352.01"
fill="none" stroke="fuchsia" stroke-width="0.5"/>
<path d="M701.79 387.5L701.97 386.74M701.97 386.74L702.49 386.16M702.49 386.16L703.22 385.88M703.22 385.88L704 385.97M704 385.97L704.65 386.42M704.65 386.42L705.01 387.11M705.01 387.11L705.01 387.9M705.01 387.9L704.65 388.59M704.65 388.59L704 389.04M704 389.04L703.22 389.13M703.22 389.13L702.49 388.85M702.49 388.85L701.97 388.27M701.97 388.27L701.79 387.5"
fill="none" stroke="fuchsia" stroke-width="0.5"/>
<path d="M735.98 387.5L736.16 386.74M736.16 386.74L736.68 386.16M736.68 386.16L737.42 385.88M737.42 385.88L738.19 385.97M738.19 385.97L738.84 386.42M738.84 386.42L739.2 387.11M739.2 387.11L739.2 387.9M739.2 387.9L738.84 388.59M738.84 388.59L738.19 389.04M738.19 389.04L737.42 389.13M737.42 389.13L736.68 388.85M736.68 388.85L736.16 388.27M736.16 388.27L735.98 387.5"
fill="none" stroke="fuchsia" stroke-width="0.5"/>
<path d="M664.06 445.74L664.25 444.98M664.25 444.98L664.77 444.39M664.77 444.39L665.5 444.12M665.5 444.12L666.28 444.21M666.28 444.21L666.92 444.65M666.92 444.65L667.29 445.35M667.29 445.35L667.29 446.13M667.29 446.13L666.92 446.82M666.92 446.82L666.28 447.27M666.28 447.27L665.5 447.36M665.5 447.36L664.77 447.09M664.77 447.09L664.25 446.5M664.25 446.5L664.06 445.74"
fill="none" stroke="fuchsia" stroke-width="0.5"/>
<path d="M626.4 470.81L626.58 470.05M626.58 470.05L627.1 469.46M627.1 469.46L627.84 469.18M627.84 469.18L628.61 469.28M628.61 469.28L629.26 469.72M629.26 469.72L629.62 470.42M629.62 470.42L629.62 471.2M629.62 471.2L629.26 471.89M629.26 471.89L628.61 472.34M628.61 472.34L627.84 472.43M627.84 472.43L627.1 472.15M627.1 472.15L626.58 471.57M626.58 471.57L626.4 470.81"
fill="none" stroke="fuchsia" stroke-width="0.5"/>
<path d="M565.97 447.19L566.16 446.25M566.16 446.25L566.69 445.46M566.69 445.46L567.49 444.92M567.49 444.92L568.43 444.74M568.43 444.74L569.37 444.92M569.37 444.92L570.16 445.46M570.16 445.46L570.7 446.25M570.7 446.25L570.88 447.19M570.88 447.19L570.7 448.13M570.7 448.13L570.16 448.93M570.16 448.93L569.37 449.46M569.37 449.46L568.43 449.65M568.43 449.65L567.49 449.46M567.49 449.46L566.69 448.93M566.69 448.93L566.16 448.13M566.16 448.13L565.97 447.19"
fill="none" stroke="fuchsia" stroke-width="0.5"/>
<path d="M566.9 450.34L566.16 450.34"
fill="none" stroke="fuchsia" stroke-width="0.5"/>
<path d="M566.16 450.34L566.16 447.41"
fill="none" stroke="fuchsia" stroke-width="0.5"/>
<path d="M566.9 450.34L566.9 450.97"
fill="none" stroke="fuchsia" stroke-width="0.5"/>
<path d="M566.9 450.34L566.9 449.71"
fill="none" stroke="fuchsia" stroke-width="0.5"/>
<path d="M572.64 480.02L572.64 486.57M572.64 486.57L566.1 486.57M566.1 486.57L566.1 480.02M566.1 480.02L572.64 480.02"
fill="none" stroke="fuchsia" stroke-width="0.5"/>
<path d="M570.29 481.72L570.48 481.19M570.48 481.19L570.96 480.91M570.96 480.91L571.51 481.01M571.51 481.01L571.87 481.44M571.87 481.44L571.87 481.99M571.87 481.99L571.51 482.42M571.51 482.42L570.96 482.52M570.96 482.52L570.48 482.24M570.48 482.24L570.29 481.72"
fill="none" stroke="fuchsia" stroke-width="0.5"/>
<path d="M566.81 481.72L567.01 481.19M567.01 481.19L567.49 480.91M567.49 480.91L568.04 481.01M568.04 481.01L568.4 481.44M568.4 481.44L568.4 481.99M568.4 481.99L568.04 482.42M568.04 482.42L567.49 482.52M567.49 482.52L567.01 482.24M567.01 482.24L566.81 481.72"
fill="none" stroke="fuchsia" stroke-width="0.5"/>
<path d="M567.27 482.75L566.52 482.75"
fill="none" stroke="fuchsia" stroke-width="0.5"/>
<path d="M566.52 482.75L566.52 485.68"
fill="none" stroke="fuchsia" stroke-width="0.5"/>
<path d="M567.27 482.75L567.27 482.12"
fill="none" stroke="fuchsia" stroke-width="0.5"/>
<path d="M570.29 484.88L570.48 484.35M570.48 484.35L570.96 484.07M570.96 484.07L571.51 484.17M571.51 484.17L571.87 484.6M571.87 484.6L571.87 485.16M571.87 485.16L571.51 485.59M571.51 485.59L570.96 485.68M570.96 485.68L570.48 485.4M570.48 485.4L570.29 484.88"
fill="none" stroke="fuchsia" stroke-width="0.5"/>
<path d="M566.81 484.88L567.01 484.35M567.01 484.35L567.49 484.07M567.49 484.07L568.04 484.17M568.04 484.17L568.4 484.6M568.4 484.6L568.4 485.16M568.4 485.16L568.04 485.59M568.04 485.59L567.49 485.68M567.49 485.68L567.01 485.4M567.01 485.4L566.81 484.88"
fill="none" stroke="fuchsia" stroke-width="0.5"/>
<path d="M567.27 482.75L567.27 483.37"
fill="none" stroke="fuchsia" stroke-width="0.5"/>
<path d="M606.83 489.79L616.64 489.79M616.64 489.79L616.64 496.33M616.64 496.33L606.83 496.33M606.83 496.33L606.83 489.79"
fill="none" stroke="fuchsia" stroke-width="0.5"/>
<path d="M605.28 495.16L605.28 495.91"
fill="none" stroke="fuchsia" stroke-width="0.5"/>
<path d="M605.28 495.91L608.21 495.91"
fill="none" stroke="fuchsia" stroke-width="0.5"/>
<path d="M605.28 495.16L604.65 495.16"
fill="none" stroke="fuchsia" stroke-width="0.5"/>
<path d="M605.28 495.16L605.9 495.16"
fill="none" stroke="fuchsia" stroke-width="0.5"/>
<path d="M742.61 310.49L742.8 309.73M742.8 309.73L743.31 309.14M743.31 309.14L744.05 308.86M744.05 308.86L744.82 308.96M744.82 308.96L745.47 309.4M745.47 309.4L745.83 310.1M745.83 310.1L745.83 310.88M745.83 310.88L745.47 311.57M745.47 311.57L744.82 312.02M744.82 312.02L744.05 312.11M744.05 312.11L743.31 311.83M743.31 311.83L742.8 311.25M742.8 311.25L742.61 310.49"
fill="none" stroke="fuchsia" stroke-width="0.5"/>
<path d="M742.61 270.34L742.8 269.58M742.8 269.58L743.31 269M743.31 269L744.05 268.72M744.05 268.72L744.82 268.81M744.82 268.81L745.47 269.26M745.47 269.26L745.83 269.95M745.83 269.95L745.83 270.73M745.83 270.73L745.47 271.43M745.47 271.43L744.82 271.87M744.82 271.87L744.05 271.97M744.05 271.97L743.31 271.69M743.31 271.69L742.8 271.1M742.8 271.1L742.61 270.34"
fill="none" stroke="fuchsia" stroke-width="0.5"/>
<path d="M742.61 230.96L742.8 230.2M742.8 230.2L743.31 229.61M743.31 229.61L744.05 229.34M744.05 229.34L744.82 229.43M744.82 229.43L745.47 229.88M745.47 229.88L745.83 230.57M745.83 230.57L745.83 231.35M745.83 231.35L745.47 232.05M745.47 232.05L744.82 232.49M744.82 232.49L744.05 232.59M744.05 232.59L743.31 232.31M743.31 232.31L742.8 231.72M742.8 231.72L742.61 230.96"
fill="none" stroke="fuchsia" stroke-width="0.5"/>
<path d="M742.61 191.58L742.8 190.82M742.8 190.82L743.31 190.23M743.31 190.23L744.05 189.96M744.05 189.96L744.82 190.05M744.82 190.05L745.47 190.49M745.47 190.49L745.83 191.19M745.83 191.19L745.83 191.97M745.83 191.97L745.47 192.67M745.47 192.67L744.82 193.11M744.82 193.11L744.05 193.2M744.05 193.2L743.31 192.93M743.31 192.93L742.8 192.34M742.8 192.34L742.61 191.58"
fill="none" stroke="fuchsia" stroke-width="0.5"/>
<path d="M142.91 449.56L142.91 441.92M142.91 441.92L140.73 441.92M140.73 441.92L140.73 449.56M140.73 449.56L142.91 449.56"
fill="none" stroke="fuchsia" stroke-width="0.5"/>
<path d="M141.79 440.94L141.05 440.94"
fill="none" stroke="fuchsia" stroke-width="0.5"/>
<path d="M141.05 440.94L141.05 442.51"
fill="none" stroke="fuchsia" stroke-width="0.5"/>
<path d="M141.79 440.94L141.79 440.31"
fill="none" stroke="fuchsia" stroke-width="0.5"/>
<path d="M141.79 440.94L141.79 441.57"
fill="none" stroke="fuchsia" stroke-width="0.5"/>
<path d="M247.42 449.56L247.42 441.92M247.42 441.92L245.24 441.92M245.24 441.92L245.24 449.56M245.24 449.56L247.42 449.56"
fill="none" stroke="fuchsia" stroke-width="0.5"/>
<path d="M246.3 440.94L245.56 440.94"
fill="none" stroke="fuchsia" stroke-width="0.5"/>
<path d="M245.56 440.94L245.56 442.51"
fill="none" stroke="fuchsia" stroke-width="0.5"/>
<path d="M246.3 440.94L246.3 440.31"
fill="none" stroke="fuchsia" stroke-width="0.5"/>
<path d="M246.3 440.94L246.3 441.57"
fill="none" stroke="fuchsia" stroke-width="0.5"/>
<path d="M319.26 461.89L319.26 454.26M319.26 454.26L321.44 454.26M321.44 454.26L321.44 461.89M321.44 461.89L319.26 461.89"
fill="none" stroke="fuchsia" stroke-width="0.5"/>
<path d="M320.38 462.87L321.12 462.87"
fill="none" stroke="fuchsia" stroke-width="0.5"/>
<path d="M321.12 462.87L321.12 461.31"
fill="none" stroke="fuchsia" stroke-width="0.5"/>
<path d="M320.38 462.87L320.38 463.5"
fill="none" stroke="fuchsia" stroke-width="0.5"/>
<path d="M320.38 462.87L320.38 462.25"
fill="none" stroke="fuchsia" stroke-width="0.5"/>
<path d="M288.85 470.52L288.85 478.16M288.85 478.16L291.03 478.16M291.03 478.16L291.03 470.52M291.03 470.52L288.85 470.52"
fill="none" stroke="fuchsia" stroke-width="0.5"/>
<path d="M247.42 344.75L247.42 352.39M247.42 352.39L245.24 352.39M245.24 352.39L245.24 344.75M245.24 344.75L247.42 344.75"
fill="none" stroke="fuchsia" stroke-width="0.5"/>
<path d="M246.3 353.37L245.56 353.37"
fill="none" stroke="fuchsia" stroke-width="0.5"/>
<path d="M245.56 353.37L245.56 351.8"
fill="none" stroke="fuchsia" stroke-width="0.5"/>
<path d="M246.3 353.37L246.3 353.99"
fill="none" stroke="fuchsia" stroke-width="0.5"/>
<path d="M246.3 353.37L246.3 352.74"
fill="none" stroke="fuchsia" stroke-width="0.5"/>
<path d="M320.38 341.07L321.12 341.07"
fill="none" stroke="fuchsia" stroke-width="0.5"/>
<path d="M321.12 341.07L321.12 339.5"
fill="none" stroke="fuchsia" stroke-width="0.5"/>
<path d="M320.38 341.07L320.38 341.69"
fill="none" stroke="fuchsia" stroke-width="0.5"/>
<path d="M320.38 341.07L320.38 340.44"
fill="none" stroke="fuchsia" stroke-width="0.5"/>
<path d="M216.5 480.17L216.5 472.53M216.5 472.53L218.68 472.53M218.68 472.53L218.68 480.17M218.68 480.17L216.5 480.17"
fill="none" stroke="fuchsia" stroke-width="0.5"/>
<path d="M217.62 481.15L218.36 481.15"
fill="none" stroke="fuchsia" stroke-width="0.5"/>
<path d="M218.36 481.15L218.36 479.58"
fill="none" stroke="fuchsia" stroke-width="0.5"/>
<path d="M217.62 481.15L217.62 481.77"
fill="none" stroke="fuchsia" stroke-width="0.5"/>
<path d="M217.62 481.15L217.62 480.52"
fill="none" stroke="fuchsia" stroke-width="0.5"/>
<path d="M142.91 344.29L142.91 351.92M142.91 351.92L140.73 351.92M140.73 351.92L140.73 344.29M140.73 344.29L142.91 344.29"
fill="none" stroke="fuchsia" stroke-width="0.5"/>
<path d="M141.79 352.9L141.05 352.9"
fill="none" stroke="fuchsia" stroke-width="0.5"/>
<path d="M141.05 352.9L141.05 351.34"
fill="none" stroke="fuchsia" stroke-width="0.5"/>
<path d="M141.79 352.9L141.79 353.53"
fill="none" stroke="fuchsia" stroke-width="0.5"/>
<path d="M141.79 352.9L141.79 352.28"
fill="none" stroke="fuchsia" stroke-width="0.5"/>
<path d="M216.5 314.76L216.5 322.39M216.5 322.39L218.68 322.39M218.68 322.39L218.68 314.76M218.68 314.76L216.5 314.76"
fill="none" stroke="fuchsia" stroke-width="0.5"/>
<path d="M217.62 313.78L218.36 313.78"
fill="none" stroke="fuchsia" stroke-width="0.5"/>
<path d="M218.36 313.78L218.36 315.34"
fill="none" stroke="fuchsia" stroke-width="0.5"/>
<path d="M217.62 313.78L217.62 313.15"
fill="none" stroke="fuchsia" stroke-width="0.5"/>
<path d="M217.62 313.78L217.62 314.41"
fill="none" stroke="fuchsia" stroke-width="0.5"/>
<path d="M755.4 286.96L755.4 279.33M755.4 279.33L757.58 279.33M757.58 279.33L757.58 286.96M757.58 286.96L755.4 286.96"
fill="none" stroke="fuchsia" stroke-width="0.5"/>
<path d="M756.52 287.94L757.26 287.94"
fill="none" stroke="fuchsia" stroke-width="0.5"/>
<path d="M757.26 287.94L757.26 286.38"
fill="none" stroke="fuchsia" stroke-width="0.5"/>
<path d="M756.52 287.94L756.52 288.57"
fill="none" stroke="fuchsia" stroke-width="0.5"/>
<path d="M756.52 287.94L756.52 287.31"
fill="none" stroke="fuchsia" stroke-width="0.5"/>
<path d="M722.96 410.26L730.6 410.26M730.6 410.26L730.6 412.44M730.6 412.44L722.96 412.44M722.96 412.44L722.96 410.26"
fill="none" stroke="fuchsia" stroke-width="0.5"/>
<path d="M721.99 411.38L721.99 412.12"
fill="none" stroke="fuchsia" stroke-width="0.5"/>
<path d="M721.99 412.12L723.55 412.12"
fill="none" stroke="fuchsia" stroke-width="0.5"/>
<path d="M721.99 411.38L721.36 411.38"
fill="none" stroke="fuchsia" stroke-width="0.5"/>
<path d="M721.99 411.38L722.61 411.38"
fill="none" stroke="fuchsia" stroke-width="0.5"/>
<path d="M702.35 280.97L700.72 281.09M700.72 281.09L699.14 281.53M699.14 281.53L697.69 282.28M697.69 282.28L696.42 283.31M696.42 283.31L695.38 284.58M695.38 284.58L694.63 286.03M694.63 286.03L694.18 287.61M694.18 287.61L694.06 289.24"
fill="none" stroke="fuchsia" stroke-width="0.5"/>
<path d="M702.21 285.33L701.03 285.49M701.03 285.49L699.96 286.02M699.96 286.02L699.11 286.86M699.11 286.86L698.58 287.93M698.58 287.93L698.43 289.11"
fill="none" stroke="fuchsia" stroke-width="0.5"/>
<path d="M719.59 285.33L721.23 285.22M721.23 285.22L722.8 284.78M722.8 284.78L724.25 284.02M724.25 284.02L725.52 282.99M725.52 282.99L726.56 281.72M726.56 281.72L727.32 280.27M727.32 280.27L727.76 278.7M727.76 278.7L727.88 277.07"
fill="none" stroke="fuchsia" stroke-width="0.5"/>
<path d="M719.73 280.97L720.92 280.82M720.92 280.82L721.99 280.29M721.99 280.29L722.83 279.45M722.83 279.45L723.36 278.38M723.36 278.38L723.52 277.2"
fill="none" stroke="fuchsia" stroke-width="0.5"/>
<path d="M702.28 285.33L719.66 285.33"
fill="none" stroke="fuchsia" stroke-width="0.5"/>
<path d="M702.28 280.97L719.66 280.97"
fill="none" stroke="fuchsia" stroke-width="0.5"/>
<path d="M727.88 277.13L727.88 159.46"
fill="none" stroke="fuchsia" stroke-width="0.5"/>
<path d="M723.52 277.13L723.52 159.46"
fill="none" stroke="fuchsia" stroke-width="0.5"/>
<path d="M723.52 159.46L727.88 159.46"
fill="none" stroke="fuchsia" stroke-width="0.5"/>
<path d="M721.82 161.68L723.52 161.68M723.52 161.68L723.52 168.38M723.52 168.38L721.82 168.38M721.82 168.38L721.82 161.68"
fill="none" stroke="fuchsia" stroke-width="0.5"/>
<path d="M721.82 257.82L723.52 257.82M723.52 257.82L723.52 264.51M723.52 264.51L721.82 264.51M721.82 264.51L721.82 257.82"
fill="none" stroke="fuchsia" stroke-width="0.5"/>
<path d="M721.82 209.75L723.52 209.75M723.52 209.75L723.52 216.45M723.52 216.45L721.82 216.45M721.82 216.45L721.82 209.75"
fill="none" stroke="fuchsia" stroke-width="0.5"/>
<path d="M581.13 297.09L581 295.4M581 295.4L580.52 293.77M580.52 293.77L579.71 292.28M579.71 292.28L578.59 291M578.59 291L577.23 289.98M577.23 289.98L575.69 289.27M575.69 289.27L574.03 288.91"
fill="none" stroke="fuchsia" stroke-width="0.5"/>
<path d="M576.76 296.96L576.58 295.78M576.58 295.78L576.05 294.7M576.05 294.7L575.22 293.84M575.22 293.84L574.17 293.27"
fill="none" stroke="fuchsia" stroke-width="0.5"/>
<path d="M565.88 285.01L566 286.64M566 286.64L566.45 288.21M566.45 288.21L567.2 289.66M567.2 289.66L568.24 290.93M568.24 290.93L569.51 291.96M569.51 291.96L570.96 292.72M570.96 292.72L572.54 293.16M572.54 293.16L574.17 293.27"
fill="none" stroke="fuchsia" stroke-width="0.5"/>
<path d="M570.24 285.14L570.4 286.32M570.4 286.32L570.93 287.39M570.93 287.39L571.78 288.23M571.78 288.23L572.85 288.75M572.85 288.75L574.03 288.91"
fill="none" stroke="fuchsia" stroke-width="0.5"/>
<path d="M570.25 285.07L570.25 159.46"
fill="none" stroke="fuchsia" stroke-width="0.5"/>
<path d="M570.25 159.46L565.88 159.46"
fill="none" stroke="fuchsia" stroke-width="0.5"/>
<path d="M571.95 161.68L570.25 161.68M570.25 161.68L570.25 168.38M570.25 168.38L571.95 168.38M571.95 168.38L571.95 161.68"
fill="none" stroke="fuchsia" stroke-width="0.5"/>
<path d="M571.95 257.82L570.25 257.82M570.25 257.82L570.25 264.51M570.25 264.51L571.95 264.51M571.95 264.51L571.95 257.82"
fill="none" stroke="fuchsia" stroke-width="0.5"/>
<path d="M571.95 209.75L570.25 209.75M570.25 209.75L570.25 216.45M570.25 216.45L571.95 216.45M571.95 216.45L571.95 209.75"
fill="none" stroke="fuchsia" stroke-width="0.5"/>
<path d="M576.76 301.72L576.76 296.96"
fill="none" stroke="fuchsia" stroke-width="0.5"/>
<path d="M581.13 301.72L581.13 297.06"
fill="none" stroke="fuchsia" stroke-width="0.5"/>
</svg>
