<?xml version="1.0" encoding="UTF-8"?>
<svg xmlns="http://www.w3.org/2000/svg" width="800.000" height="600.000" viewBox="0.0 0.0 800.000 600.000" version="1.1">
  <title>Produce by Acme CAD Converter</title>
  <desc>Produce by Acme CAD Converter</desc>
<path d="M240.11 367.72L238.52 367.88M238.52 367.88L236.98 368.34M236.98 368.34L235.57 369.1M235.57 369.1L234.33 370.11M234.33 370.11L233.31 371.35M233.31 371.35L232.55 372.77M232.55 372.77L232.09 374.3M232.09 374.3L231.93 375.9"
fill="none" stroke="RGB(63,255,0)" stroke-width="0.5"/>
<path d="M503.7 367.17L502 367.34M502 367.34L500.36 367.84M500.36 367.84L498.85 368.64M498.85 368.64L497.53 369.73M497.53 369.73L496.44 371.05M496.44 371.05L495.64 372.56M495.64 372.56L495.14 374.2M495.14 374.2L494.97 375.9"
fill="none" stroke="RGB(63,255,0)" stroke-width="0.5"/>
<path d="M556.61 375.9L556.44 374.2M556.44 374.2L555.95 372.56M555.95 372.56L555.14 371.05M555.14 371.05L554.05 369.73M554.05 369.73L552.73 368.64M552.73 368.64L551.22 367.84M551.22 367.84L549.59 367.34M549.59 367.34L547.88 367.17"
fill="none" stroke="RGB(63,255,0)" stroke-width="0.5"/>
<path d="M453.52 367.17L451.82 367.34M451.82 367.34L450.18 367.84M450.18 367.84L448.67 368.64M448.67 368.64L447.35 369.73M447.35 369.73L446.26 371.05M446.26 371.05L445.46 372.56M445.46 372.56L444.96 374.2M444.96 374.2L444.79 375.9"
fill="none" stroke="RGB(63,255,0)" stroke-width="0.5"/>
<path d="M444.79 375.9L444.62 374.2M444.62 374.2L444.13 372.56M444.13 372.56L443.32 371.05M443.32 371.05L442.24 369.73M442.24 369.73L440.91 368.64M440.91 368.64L439.41 367.84M439.41 367.84L437.77 367.34M437.77 367.34L436.07 367.17"
fill="none" stroke="RGB(63,255,0)" stroke-width="0.5"/>
<path d="M364.61 375.9L364.44 374.2M364.44 374.2L363.95 372.56M363.95 372.56L363.14 371.05M363.14 371.05L362.06 369.73M362.06 369.73L360.73 368.64M360.73 368.64L359.22 367.84M359.22 367.84L357.59 367.34M357.59 367.34L355.88 367.17"
fill="none" stroke="RGB(63,255,0)" stroke-width="0.5"/>
<path d="M373.34 367.17L371.64 367.34M371.64 367.34L370 367.84M370 367.84L368.49 368.64M368.49 368.64L367.17 369.73M367.17 369.73L366.08 371.05M366.08 371.05L365.28 372.56M365.28 372.56L364.78 374.2M364.78 374.2L364.61 375.9"
fill="none" stroke="RGB(63,255,0)" stroke-width="0.5"/>
<path d="M516.25 427.17L517.95 427M517.95 427L519.59 426.51M519.59 426.51L521.1 425.7M521.1 425.7L522.42 424.62M522.42 424.62L523.5 423.29M523.5 423.29L524.31 421.78M524.31 421.78L524.81 420.15M524.81 420.15L524.97 418.44"
fill="none" stroke="RGB(63,255,0)" stroke-width="0.5"/>
<path d="M516.25 418.44L516.79 418.44M516.79 418.44L516.79 427.17M516.79 427.17L516.25 427.17M516.25 427.17L516.25 418.44"
fill="none" stroke="RGB(63,255,0)" stroke-width="0.5"/>
<path d="M507.52 377.54L507.71 379.35M507.71 379.35L508.27 381.09M508.27 381.09L509.19 382.67M509.19 382.67L510.41 384.02M510.41 384.02L511.88 385.09M511.88 385.09L513.55 385.84M513.55 385.84L515.33 386.22M515.33 386.22L517.16 386.22M517.16 386.22L518.94 385.84M518.94 385.84L520.61 385.09M520.61 385.09L522.09 384.02M522.09 384.02L523.31 382.67M523.31 382.67L524.22 381.09M524.22 381.09L524.78 379.35M524.78 379.35L524.97 377.54"
fill="none" stroke="RGB(63,255,0)" stroke-width="0.5"/>
<path d="M231.93 418.38L232.09 419.97M232.09 419.97L232.55 421.51M232.55 421.51L233.31 422.92M233.31 422.92L234.33 424.16M234.33 424.16L235.57 425.18M235.57 425.18L236.98 425.93M236.98 425.93L238.52 426.4M238.52 426.4L240.11 426.56"
fill="none" stroke="RGB(63,255,0)" stroke-width="0.5"/>
<path d="M240.11 375.94L240.11 369.4"
fill="none" stroke="RGB(63,255,0)" stroke-width="0.5"/>
<path d="M240.11 375.94L240.11 367.76"
fill="none" stroke="RGB(63,255,0)" stroke-width="0.5"/>
<path d="M239.57 375.36L239.57 368.84"
fill="none" stroke="RGB(63,255,0)" stroke-width="0.5"/>
<path d="M239.57 375.94L239.57 367.78"
fill="none" stroke="RGB(63,255,0)" stroke-width="0.5"/>
<path d="M240.11 418.41L240.11 426.59"
fill="none" stroke="RGB(63,255,0)" stroke-width="0.5"/>
<path d="M240.11 418.41L240.11 424.95"
fill="none" stroke="RGB(63,255,0)" stroke-width="0.5"/>
<path d="M239.57 418.41L239.57 426.57"
fill="none" stroke="RGB(63,255,0)" stroke-width="0.5"/>
<path d="M239.57 418.41L239.57 424.93"
fill="none" stroke="RGB(63,255,0)" stroke-width="0.5"/>
<path d="M319.34 379.41L319.34 371.24M319.34 371.24L319.88 371.24M319.88 371.24L319.88 379.42"
fill="none" stroke="RGB(63,255,0)" stroke-width="0.5"/>
<path d="M319.34 415.16L319.34 423.32M319.34 423.32L319.88 423.32M319.88 423.32L319.88 415.14"
fill="none" stroke="RGB(63,255,0)" stroke-width="0.5"/>
<path d="M303.54 379.75L303.54 371.57M303.54 371.57L304.09 371.57M304.09 371.57L304.09 379.74"
fill="none" stroke="RGB(63,255,0)" stroke-width="0.5"/>
<path d="M303.52 415.14L303.52 423.32M303.52 423.32L304.07 423.32M304.07 423.32L304.07 415.16"
fill="none" stroke="RGB(63,255,0)" stroke-width="0.5"/>
<path d="M319.88 415.14L318.29 415.29M318.29 415.29L316.75 415.76M316.75 415.76L315.34 416.52M315.34 416.52L314.1 417.53M314.1 417.53L313.08 418.77M313.08 418.77L312.33 420.19M312.33 420.19L311.86 421.72M311.86 421.72L311.7 423.32"
fill="none" stroke="RGB(63,255,0)" stroke-width="0.5"/>
<path d="M311.7 423.32L311.55 421.72M311.55 421.72L311.08 420.19M311.08 420.19L310.32 418.77M310.32 418.77L309.31 417.53M309.31 417.53L308.07 416.52M308.07 416.52L306.65 415.76M306.65 415.76L305.12 415.29M305.12 415.29L303.52 415.14"
fill="none" stroke="RGB(63,255,0)" stroke-width="0.5"/>
<path d="M311.72 371.24L311.87 372.84M311.87 372.84L312.34 374.37M312.34 374.37L313.09 375.79M313.09 375.79L314.11 377.03M314.11 377.03L315.35 378.05M315.35 378.05L316.77 378.8M316.77 378.8L318.3 379.27M318.3 379.27L319.9 379.42"
fill="none" stroke="RGB(63,255,0)" stroke-width="0.5"/>
<path d="M303.54 379.75L305.14 379.6M305.14 379.6L306.67 379.13M306.67 379.13L308.09 378.37M308.09 378.37L309.33 377.36M309.33 377.36L310.34 376.12M310.34 376.12L311.1 374.7M311.1 374.7L311.56 373.17M311.56 373.17L311.72 371.57"
fill="none" stroke="RGB(63,255,0)" stroke-width="0.5"/>
<path d="M372.79 418.44L373.34 418.44M373.34 418.44L373.34 427.17M373.34 427.17L372.79 427.17M372.79 427.17L372.79 418.44"
fill="none" stroke="RGB(63,255,0)" stroke-width="0.5"/>
<path d="M364.61 418.44L364.78 420.15M364.78 420.15L365.28 421.78M365.28 421.78L366.08 423.29M366.08 423.29L367.17 424.62M367.17 424.62L368.49 425.7M368.49 425.7L370 426.51M370 426.51L371.64 427M371.64 427L373.34 427.17"
fill="none" stroke="RGB(63,255,0)" stroke-width="0.5"/>
<path d="M355.88 418.44L356.43 418.44M356.43 418.44L356.43 427.17M356.43 427.17L355.88 427.17M355.88 427.17L355.88 418.44"
fill="none" stroke="RGB(63,255,0)" stroke-width="0.5"/>
<path d="M355.88 427.17L357.59 427M357.59 427L359.22 426.51M359.22 426.51L360.73 425.7M360.73 425.7L362.06 424.62M362.06 424.62L363.14 423.29M363.14 423.29L363.95 421.78M363.95 421.78L364.44 420.15M364.44 420.15L364.61 418.44"
fill="none" stroke="RGB(63,255,0)" stroke-width="0.5"/>
<path d="M355.88 375.9L356.43 375.9M356.43 375.9L356.43 367.17M356.43 367.17L355.88 367.17M355.88 367.17L355.88 375.9"
fill="none" stroke="RGB(63,255,0)" stroke-width="0.5"/>
<path d="M372.79 375.9L373.34 375.9M373.34 375.9L373.34 367.17M373.34 367.17L372.79 367.17M372.79 367.17L372.79 375.9"
fill="none" stroke="RGB(63,255,0)" stroke-width="0.5"/>
<path d="M444.79 418.44L444.96 420.15M444.96 420.15L445.46 421.78M445.46 421.78L446.26 423.29M446.26 423.29L447.35 424.62M447.35 424.62L448.67 425.7M448.67 425.7L450.18 426.51M450.18 426.51L451.82 427M451.82 427L453.52 427.17"
fill="none" stroke="RGB(63,255,0)" stroke-width="0.5"/>
<path d="M452.97 418.44L453.52 418.44M453.52 418.44L453.52 427.17M453.52 427.17L452.97 427.17M452.97 427.17L452.97 418.44"
fill="none" stroke="RGB(63,255,0)" stroke-width="0.5"/>
<path d="M436.07 418.44L436.61 418.44M436.61 418.44L436.61 427.17M436.61 427.17L436.07 427.17M436.07 427.17L436.07 418.44"
fill="none" stroke="RGB(63,255,0)" stroke-width="0.5"/>
<path d="M436.07 427.17L437.77 427M437.77 427L439.41 426.51M439.41 426.51L440.91 425.7M440.91 425.7L442.24 424.62M442.24 424.62L443.32 423.29M443.32 423.29L444.13 421.78M444.13 421.78L444.62 420.15M444.62 420.15L444.79 418.44"
fill="none" stroke="RGB(63,255,0)" stroke-width="0.5"/>
<path d="M452.97 375.9L453.52 375.9M453.52 375.9L453.52 367.17M453.52 367.17L452.97 367.17M452.97 367.17L452.97 375.9"
fill="none" stroke="RGB(63,255,0)" stroke-width="0.5"/>
<path d="M436.07 375.9L436.61 375.9M436.61 375.9L436.61 367.17M436.61 367.17L436.07 367.17M436.07 367.17L436.07 375.9"
fill="none" stroke="RGB(63,255,0)" stroke-width="0.5"/>
<path d="M516.25 377.54L516.25 378.08M516.25 378.08L507.52 378.08M507.52 378.08L507.52 377.54M507.52 377.54L516.25 377.54"
fill="none" stroke="RGB(63,255,0)" stroke-width="0.5"/>
<path d="M503.7 375.9L503.7 367.17M503.7 367.17L503.16 367.17M503.16 367.17L503.16 375.9M503.16 375.9L503.7 375.9"
fill="none" stroke="RGB(63,255,0)" stroke-width="0.5"/>
<path d="M632.97 427.75L625.34 427.75M625.34 427.75L625.34 428.29M625.34 428.29L632.97 428.29M632.97 428.29L632.97 427.75"
fill="none" stroke="RGB(63,255,0)" stroke-width="0.5"/>
<path d="M625.34 427.75L625.53 429.45M625.53 429.45L626.09 431.06M626.09 431.06L627 432.51M627 432.51L628.21 433.72M628.21 433.72L629.66 434.63M629.66 434.63L631.27 435.19M631.27 435.19L632.97 435.38"
fill="none" stroke="RGB(63,255,0)" stroke-width="0.5"/>
<path d="M533.16 418.44L533.7 418.44M533.7 418.44L533.7 427.17M533.7 427.17L533.16 427.17M533.16 427.17L533.16 418.44"
fill="none" stroke="RGB(63,255,0)" stroke-width="0.5"/>
<path d="M533.7 378.08L533.7 377.54M533.7 377.54L542.43 377.54M542.43 377.54L542.43 378.08M542.43 378.08L533.7 378.08"
fill="none" stroke="RGB(63,255,0)" stroke-width="0.5"/>
<path d="M524.97 377.54L525.16 379.35M525.16 379.35L525.73 381.09M525.73 381.09L526.64 382.67M526.64 382.67L527.86 384.02M527.86 384.02L529.34 385.09M529.34 385.09L531 385.84M531 385.84L532.79 386.22M532.79 386.22L534.61 386.22M534.61 386.22L536.4 385.84M536.4 385.84L538.06 385.09M538.06 385.09L539.54 384.02M539.54 384.02L540.76 382.67M540.76 382.67L541.67 381.09M541.67 381.09L542.24 379.35M542.24 379.35L542.43 377.54"
fill="none" stroke="RGB(63,255,0)" stroke-width="0.5"/>
<path d="M524.97 418.44L525.14 420.15M525.14 420.15L525.64 421.78M525.64 421.78L526.44 423.29M526.44 423.29L527.53 424.62M527.53 424.62L528.85 425.7M528.85 425.7L530.36 426.51M530.36 426.51L532 427M532 427L533.7 427.17"
fill="none" stroke="RGB(63,255,0)" stroke-width="0.5"/>
<path d="M547.88 375.9L547.88 367.17M547.88 367.17L548.43 367.17M548.43 367.17L548.43 375.9M548.43 375.9L547.88 375.9"
fill="none" stroke="RGB(63,255,0)" stroke-width="0.5"/>
<path d="M595.88 427.17L597.58 427M597.58 427L599.22 426.51M599.22 426.51L600.73 425.7M600.73 425.7L602.05 424.62M602.05 424.62L603.14 423.29M603.14 423.29L603.94 421.78M603.94 421.78L604.44 420.15M604.44 420.15L604.61 418.44"
fill="none" stroke="RGB(63,255,0)" stroke-width="0.5"/>
<path d="M595.88 418.44L596.43 418.44M596.43 418.44L596.43 427.17M596.43 427.17L595.88 427.17M595.88 427.17L595.88 418.44"
fill="none" stroke="RGB(63,255,0)" stroke-width="0.5"/>
<path d="M604.61 418.44L604.78 420.15M604.78 420.15L605.27 421.78M605.27 421.78L606.08 423.29M606.08 423.29L607.17 424.62M607.17 424.62L608.49 425.7M608.49 425.7L610 426.51M610 426.51L611.63 427M611.63 427L613.34 427.17"
fill="none" stroke="RGB(63,255,0)" stroke-width="0.5"/>
<path d="M612.79 418.44L613.34 418.44M613.34 418.44L613.34 427.17M613.34 427.17L612.79 427.17M612.79 427.17L612.79 418.44"
fill="none" stroke="RGB(63,255,0)" stroke-width="0.5"/>
<path d="M676.61 477.9L676.78 479.6M676.78 479.6L677.27 481.24M677.27 481.24L678.08 482.75M678.08 482.75L679.16 484.07M679.16 484.07L680.49 485.16M680.49 485.16L682 485.96M682 485.96L683.63 486.46M683.63 486.46L685.34 486.63"
fill="none" stroke="RGB(63,255,0)" stroke-width="0.5"/>
<path d="M685.34 477.9L676.61 477.9M676.61 477.9L676.61 478.44M676.61 478.44L685.34 478.44M685.34 478.44L685.34 477.9"
fill="none" stroke="RGB(63,255,0)" stroke-width="0.5"/>
<path d="M646.06 486.63L647.77 486.46M647.77 486.46L649.4 485.96M649.4 485.96L650.91 485.16M650.91 485.16L652.23 484.07M652.23 484.07L653.32 482.75M653.32 482.75L654.13 481.24M654.13 481.24L654.62 479.6M654.62 479.6L654.79 477.9"
fill="none" stroke="RGB(63,255,0)" stroke-width="0.5"/>
<path d="M646.06 477.9L654.79 477.9M654.79 477.9L654.79 478.44M654.79 478.44L646.06 478.44M646.06 478.44L646.06 477.9"
fill="none" stroke="RGB(63,255,0)" stroke-width="0.5"/>
<path d="M677.7 374.81L677.89 376.51M677.89 376.51L678.46 378.12M678.46 378.12L679.37 379.57M679.37 379.57L680.57 380.78M680.57 380.78L682.02 381.69M682.02 381.69L683.64 382.25M683.64 382.25L685.34 382.45"
fill="none" stroke="RGB(63,255,0)" stroke-width="0.5"/>
<path d="M685.34 374.81L677.7 374.81M677.7 374.81L677.7 375.35M677.7 375.35L685.34 375.35M685.34 375.35L685.34 374.81"
fill="none" stroke="RGB(63,255,0)" stroke-width="0.5"/>
<path d="M635.15 418.44L635.15 427.17M635.15 427.17L635.7 427.17M635.7 427.17L635.7 418.44M635.7 418.44L635.15 418.44"
fill="none" stroke="RGB(63,255,0)" stroke-width="0.5"/>
<path d="M635.15 427.17L636.86 427M636.86 427L638.49 426.51M638.49 426.51L640 425.7M640 425.7L641.33 424.62M641.33 424.62L642.41 423.29M642.41 423.29L643.22 421.78M643.22 421.78L643.71 420.15M643.71 420.15L643.88 418.44"
fill="none" stroke="RGB(63,255,0)" stroke-width="0.5"/>
<path d="M645.25 404.61L653.97 404.61M653.97 404.61L653.97 405.16M653.97 405.16L645.25 405.16M645.25 405.16L645.25 404.61"
fill="none" stroke="RGB(63,255,0)" stroke-width="0.5"/>
<path d="M645.25 413.34L646.95 413.17M646.95 413.17L648.58 412.67M648.58 412.67L650.09 411.87M650.09 411.87L651.42 410.78M651.42 410.78L652.5 409.46M652.5 409.46L653.31 407.95M653.31 407.95L653.8 406.31M653.8 406.31L653.97 404.61"
fill="none" stroke="RGB(63,255,0)" stroke-width="0.5"/>
<path d="M654.25 397.25L654.07 395.54M654.07 395.54L653.51 393.91M653.51 393.91L652.61 392.45M652.61 392.45L651.4 391.22M651.4 391.22L649.94 390.3M649.94 390.3L648.32 389.73M648.32 389.73L646.61 389.54"
fill="none" stroke="RGB(63,255,0)" stroke-width="0.5"/>
<path d="M647.15 389.56L647.15 397.17M647.15 397.17L646.61 397.17M646.61 397.17L646.61 389.54"
fill="none" stroke="RGB(63,255,0)" stroke-width="0.5"/>
<path d="M667.34 396.63L667.17 395.17M667.17 395.17L666.69 393.79M666.69 393.79L665.91 392.55M665.91 392.55L664.87 391.51M664.87 391.51L663.63 390.73M663.63 390.73L662.25 390.25M662.25 390.25L660.79 390.08"
fill="none" stroke="RGB(63,255,0)" stroke-width="0.5"/>
<path d="M660.79 396.63L667.34 396.63M667.34 396.63L667.34 396.08M667.34 396.08L660.79 396.08M660.79 396.08L660.79 396.63"
fill="none" stroke="RGB(63,255,0)" stroke-width="0.5"/>
<path d="M660.79 381.35L662.25 381.19M662.25 381.19L663.63 380.71M663.63 380.71L664.87 379.93M664.87 379.93L665.91 378.89M665.91 378.89L666.69 377.65M666.69 377.65L667.17 376.27M667.17 376.27L667.34 374.81"
fill="none" stroke="RGB(63,255,0)" stroke-width="0.5"/>
<path d="M660.79 374.81L667.34 374.81M667.34 374.81L667.34 375.35M667.34 375.35L660.79 375.35M660.79 375.35L660.79 374.81"
fill="none" stroke="RGB(63,255,0)" stroke-width="0.5"/>
<path d="M710.43 374.26L710.59 375.97M710.59 375.97L711.09 377.6M711.09 377.6L711.9 379.11M711.9 379.11L712.98 380.43M712.98 380.43L714.3 381.52M714.3 381.52L715.81 382.33M715.81 382.33L717.45 382.82M717.45 382.82L719.15 382.99"
fill="none" stroke="RGB(63,255,0)" stroke-width="0.5"/>
<path d="M721.88 382.99L723.58 382.82M723.58 382.82L725.22 382.33M725.22 382.33L726.73 381.52M726.73 381.52L728.05 380.43M728.05 380.43L729.14 379.11M729.14 379.11L729.94 377.6M729.94 377.6L730.44 375.97M730.44 375.97L730.61 374.26"
fill="none" stroke="RGB(63,255,0)" stroke-width="0.5"/>
<path d="M719.15 374.26L719.15 382.99M719.15 382.99L718.61 382.99M718.61 382.99L718.61 374.26M718.61 374.26L719.15 374.26"
fill="none" stroke="RGB(63,255,0)" stroke-width="0.5"/>
<path d="M721.88 374.26L721.88 382.99M721.88 382.99L722.43 382.99M722.43 382.99L722.43 374.26M722.43 374.26L721.88 374.26"
fill="none" stroke="RGB(63,255,0)" stroke-width="0.5"/>
<path d="M222.79 354.1L222.79 347.58"
fill="none" stroke="RGB(63,255,0)" stroke-width="0.5"/>
<path d="M228.79 354.1L228.62 352.65M228.62 352.65L228.14 351.26M228.14 351.26L227.36 350.02M227.36 350.02L226.32 348.99M226.32 348.99L225.08 348.21M225.08 348.21L223.7 347.72M223.7 347.72L222.24 347.56"
fill="none" stroke="RGB(63,255,0)" stroke-width="0.5"/>
<path d="M222.24 354.1L222.24 347.56"
fill="none" stroke="RGB(63,255,0)" stroke-width="0.5"/>
<path d="M241.34 354.1L241.34 347.58"
fill="none" stroke="RGB(63,255,0)" stroke-width="0.5"/>
<path d="M241.89 354.1L241.89 347.56"
fill="none" stroke="RGB(63,255,0)" stroke-width="0.5"/>
<path d="M241.89 347.56L240.43 347.72M240.43 347.72L239.05 348.21M239.05 348.21L237.8 348.99M237.8 348.99L236.77 350.02M236.77 350.02L235.99 351.26M235.99 351.26L235.5 352.65M235.5 352.65L235.34 354.1"
fill="none" stroke="RGB(63,255,0)" stroke-width="0.5"/>
<path d="M504.25 297.9L497.7 297.9M497.7 297.9L497.7 298.45M497.7 298.45L504.25 298.45M504.25 298.45L504.25 297.9"
fill="none" stroke="RGB(63,255,0)" stroke-width="0.5"/>
<path d="M504.25 307.72L497.7 307.72M497.7 307.72L497.7 308.26M497.7 308.26L504.25 308.26M504.25 308.26L504.25 307.72"
fill="none" stroke="RGB(63,255,0)" stroke-width="0.5"/>
<path d="M497.7 297.9L497.87 299.36M497.87 299.36L498.35 300.74M498.35 300.74L499.13 301.98M499.13 301.98L500.17 303.02M500.17 303.02L501.41 303.8M501.41 303.8L502.79 304.28M502.79 304.28L504.25 304.45"
fill="none" stroke="RGB(63,255,0)" stroke-width="0.5"/>
<path d="M497.7 317.54L497.87 318.99M497.87 318.99L498.35 320.38M498.35 320.38L499.13 321.62M499.13 321.62L500.17 322.65M500.17 322.65L501.41 323.43M501.41 323.43L502.79 323.92M502.79 323.92L504.25 324.08"
fill="none" stroke="RGB(63,255,0)" stroke-width="0.5"/>
<path d="M504.25 317.54L497.7 317.54M497.7 317.54L497.7 318.08M497.7 318.08L504.25 318.08M504.25 318.08L504.25 317.54"
fill="none" stroke="RGB(63,255,0)" stroke-width="0.5"/>
<path d="M504.25 327.35L497.7 327.35M497.7 327.35L497.7 327.9M497.7 327.9L504.25 327.9M504.25 327.9L504.25 327.35"
fill="none" stroke="RGB(63,255,0)" stroke-width="0.5"/>
<path d="M497.7 327.35L497.87 328.81M497.87 328.81L498.35 330.19M498.35 330.19L499.13 331.44M499.13 331.44L500.17 332.47M500.17 332.47L501.41 333.25M501.41 333.25L502.79 333.74M502.79 333.74L504.25 333.9"
fill="none" stroke="RGB(63,255,0)" stroke-width="0.5"/>
<path d="M497.7 307.72L497.87 309.18M497.87 309.18L498.35 310.56M498.35 310.56L499.13 311.8M499.13 311.8L500.17 312.84M500.17 312.84L501.41 313.62M501.41 313.62L502.79 314.1M502.79 314.1L504.25 314.26"
fill="none" stroke="RGB(63,255,0)" stroke-width="0.5"/>
<path d="M565.88 234.23L567.78 234.07M567.78 234.07L569.61 233.58M569.61 233.58L571.34 232.77M571.34 232.77L572.89 231.68M572.89 231.68L574.24 230.34M574.24 230.34L575.33 228.78M575.33 228.78L576.13 227.06M576.13 227.06L576.63 225.22M576.63 225.22L576.79 223.32"
fill="none" stroke="RGB(63,255,0)" stroke-width="0.5"/>
<path d="M569.11 313.17L571.03 312.98M571.03 312.98L572.87 312.43M572.87 312.43L574.57 311.52M574.57 311.52L576.05 310.3M576.05 310.3L577.28 308.81M577.28 308.81L578.18 307.11M578.18 307.11L578.74 305.27M578.74 305.27L578.93 303.36"
fill="none" stroke="RGB(63,255,0)" stroke-width="0.5"/>
<path d="M547.34 307.72L553.88 307.72M553.88 307.72L553.88 308.26M553.88 308.26L547.34 308.26M547.34 308.26L547.34 307.72"
fill="none" stroke="RGB(63,255,0)" stroke-width="0.5"/>
<path d="M547.34 304.45L548.79 304.28M548.79 304.28L550.18 303.8M550.18 303.8L551.42 303.02M551.42 303.02L552.45 301.98M552.45 301.98L553.23 300.74M553.23 300.74L553.72 299.36M553.72 299.36L553.88 297.9"
fill="none" stroke="RGB(63,255,0)" stroke-width="0.5"/>
<path d="M547.34 297.9L553.88 297.9M553.88 297.9L553.88 298.45M553.88 298.45L547.34 298.45M547.34 298.45L547.34 297.9"
fill="none" stroke="RGB(63,255,0)" stroke-width="0.5"/>
<path d="M547.34 337.17L553.88 337.17M553.88 337.17L553.88 337.72M553.88 337.72L547.34 337.72M547.34 337.72L547.34 337.17"
fill="none" stroke="RGB(63,255,0)" stroke-width="0.5"/>
<path d="M547.34 343.72L548.79 343.55M548.79 343.55L550.18 343.07M550.18 343.07L551.42 342.29M551.42 342.29L552.45 341.25M552.45 341.25L553.23 340.01M553.23 340.01L553.72 338.63M553.72 338.63L553.88 337.17"
fill="none" stroke="RGB(63,255,0)" stroke-width="0.5"/>
<path d="M547.34 327.35L553.88 327.35M553.88 327.35L553.88 327.9M553.88 327.9L547.34 327.9M547.34 327.9L547.34 327.35"
fill="none" stroke="RGB(63,255,0)" stroke-width="0.5"/>
<path d="M547.34 333.9L548.79 333.74M548.79 333.74L550.18 333.25M550.18 333.25L551.42 332.47M551.42 332.47L552.45 331.44M552.45 331.44L553.23 330.19M553.23 330.19L553.72 328.81M553.72 328.81L553.88 327.35"
fill="none" stroke="RGB(63,255,0)" stroke-width="0.5"/>
<path d="M547.34 317.54L553.88 317.54M553.88 317.54L553.88 318.08M553.88 318.08L547.34 318.08M547.34 318.08L547.34 317.54"
fill="none" stroke="RGB(63,255,0)" stroke-width="0.5"/>
<path d="M547.34 324.08L548.79 323.92M548.79 323.92L550.18 323.43M550.18 323.43L551.42 322.65M551.42 322.65L552.45 321.62M552.45 321.62L553.23 320.38M553.23 320.38L553.72 318.99M553.72 318.99L553.88 317.54"
fill="none" stroke="RGB(63,255,0)" stroke-width="0.5"/>
<path d="M547.34 314.26L548.79 314.1M548.79 314.1L550.18 313.62M550.18 313.62L551.42 312.84M551.42 312.84L552.45 311.8M552.45 311.8L553.23 310.56M553.23 310.56L553.72 309.18M553.72 309.18L553.88 307.72"
fill="none" stroke="RGB(63,255,0)" stroke-width="0.5"/>
<path d="M569.66 313.16L569.66 303.36M569.66 303.36L569.11 303.36M569.11 303.36L569.11 313.17"
fill="none" stroke="RGB(63,255,0)" stroke-width="0.5"/>
<path d="M578.93 303.36L579.12 305.27M579.12 305.27L579.68 307.11M579.68 307.11L580.58 308.81M580.58 308.81L581.81 310.3M581.81 310.3L583.29 311.52M583.29 311.52L584.99 312.43M584.99 312.43L586.83 312.98M586.83 312.98L588.75 313.17"
fill="none" stroke="RGB(63,255,0)" stroke-width="0.5"/>
<path d="M588.2 313.16L588.2 303.36M588.2 303.36L588.75 303.36M588.75 303.36L588.75 313.17"
fill="none" stroke="RGB(63,255,0)" stroke-width="0.5"/>
<path d="M576.79 245.14L576.63 243.25M576.63 243.25L576.13 241.41M576.13 241.41L575.33 239.69M575.33 239.69L574.24 238.13M574.24 238.13L572.89 236.79M572.89 236.79L571.34 235.69M571.34 235.69L569.61 234.89M569.61 234.89L567.78 234.4M567.78 234.4L565.88 234.23"
fill="none" stroke="RGB(63,255,0)" stroke-width="0.5"/>
<path d="M565.88 245.14L576.79 245.14M576.79 245.14L576.79 244.6M576.79 244.6L565.88 244.6M565.88 244.6L565.88 245.14"
fill="none" stroke="RGB(63,255,0)" stroke-width="0.5"/>
<path d="M520.55 294.63L520.55 285.9M520.55 285.9L521.09 285.9M521.09 285.9L521.09 294.63M521.09 294.63L520.55 294.63"
fill="none" stroke="RGB(63,255,0)" stroke-width="0.5"/>
<path d="M529.27 294.63L529.11 292.93M529.11 292.93L528.61 291.29M528.61 291.29L527.8 289.78M527.8 289.78L526.72 288.46M526.72 288.46L525.4 287.37M525.4 287.37L523.89 286.57M523.89 286.57L522.25 286.07M522.25 286.07L520.55 285.9"
fill="none" stroke="RGB(63,255,0)" stroke-width="0.5"/>
<path d="M730.61 301.17L732.31 301.01M732.31 301.01L733.95 300.51M733.95 300.51L735.46 299.7M735.46 299.7L736.78 298.62M736.78 298.62L737.86 297.29M737.86 297.29L738.67 295.79M738.67 295.79L739.17 294.15M739.17 294.15L739.34 292.45"
fill="none" stroke="RGB(63,255,0)" stroke-width="0.5"/>
<path d="M731.15 352.45L729.45 352.61M729.45 352.61L727.81 353.11M727.81 353.11L726.3 353.92M726.3 353.92L724.98 355M724.98 355L723.9 356.32M723.9 356.32L723.09 357.83M723.09 357.83L722.59 359.47M722.59 359.47L722.43 361.17"
fill="none" stroke="RGB(63,255,0)" stroke-width="0.5"/>
<path d="M722.43 343.72L722.59 345.42M722.59 345.42L723.09 347.06M723.09 347.06L723.9 348.57M723.9 348.57L724.98 349.89M724.98 349.89L726.3 350.97M726.3 350.97L727.81 351.78M727.81 351.78L729.45 352.28M729.45 352.28L731.15 352.45"
fill="none" stroke="RGB(63,255,0)" stroke-width="0.5"/>
<path d="M722.43 344.26L731.15 344.26M731.15 344.26L731.15 343.72M731.15 343.72L722.43 343.72M722.43 343.72L722.43 344.26"
fill="none" stroke="RGB(63,255,0)" stroke-width="0.5"/>
<path d="M722.43 361.17L731.15 361.17M731.15 361.17L731.15 360.63M731.15 360.63L722.43 360.63M722.43 360.63L722.43 361.17"
fill="none" stroke="RGB(63,255,0)" stroke-width="0.5"/>
<path d="M706.11 313.17L708.02 312.98M708.02 312.98L709.86 312.43M709.86 312.43L711.56 311.52M711.56 311.52L713.05 310.3M713.05 310.3L714.27 308.81M714.27 308.81L715.18 307.11M715.18 307.11L715.74 305.27M715.74 305.27L715.93 303.36"
fill="none" stroke="RGB(63,255,0)" stroke-width="0.5"/>
<path d="M706.65 313.16L706.65 303.36M706.65 303.36L706.11 303.36M706.11 303.36L706.11 313.17"
fill="none" stroke="RGB(63,255,0)" stroke-width="0.5"/>
<path d="M715.93 303.36L716.11 305.27M716.11 305.27L716.67 307.11M716.67 307.11L717.58 308.81M717.58 308.81L718.8 310.3M718.8 310.3L720.29 311.52M720.29 311.52L721.99 312.43M721.99 312.43L723.83 312.98M723.83 312.98L725.74 313.17"
fill="none" stroke="RGB(63,255,0)" stroke-width="0.5"/>
<path d="M725.2 313.16L725.2 303.36M725.2 303.36L725.74 303.36M725.74 303.36L725.74 313.17"
fill="none" stroke="RGB(63,255,0)" stroke-width="0.5"/>
<path d="M730.61 248.16L739.34 248.16M739.34 248.16L739.34 247.61M739.34 247.61L730.61 247.61M730.61 247.61L730.61 248.16"
fill="none" stroke="RGB(63,255,0)" stroke-width="0.5"/>
<path d="M739.34 287.54L739.17 285.83M739.17 285.83L738.67 284.2M738.67 284.2L737.86 282.69M737.86 282.69L736.78 281.37M736.78 281.37L735.46 280.28M735.46 280.28L733.95 279.47M733.95 279.47L732.31 278.98M732.31 278.98L730.61 278.81"
fill="none" stroke="RGB(63,255,0)" stroke-width="0.5"/>
<path d="M730.61 292.45L739.34 292.45M739.34 292.45L739.34 292.99M739.34 292.99L730.61 292.99M730.61 292.99L730.61 292.45"
fill="none" stroke="RGB(63,255,0)" stroke-width="0.5"/>
<path d="M730.61 287.54L739.34 287.54M739.34 287.54L739.34 286.99M739.34 286.99L730.61 286.99M730.61 286.99L730.61 287.54"
fill="none" stroke="RGB(63,255,0)" stroke-width="0.5"/>
<path d="M739.34 248.16L739.17 246.45M739.17 246.45L738.67 244.82M738.67 244.82L737.86 243.31M737.86 243.31L736.78 241.98M736.78 241.98L735.46 240.9M735.46 240.9L733.95 240.09M733.95 240.09L732.31 239.6M732.31 239.6L730.61 239.43"
fill="none" stroke="RGB(63,255,0)" stroke-width="0.5"/>
<path d="M565.88 223.87L576.79 223.87M576.79 223.87L576.79 223.32M576.79 223.32L565.88 223.32M565.88 223.32L565.88 223.87"
fill="none" stroke="RGB(63,255,0)" stroke-width="0.5"/>
<path d="M730.61 169.39L739.34 169.39M739.34 169.39L739.34 168.85M739.34 168.85L730.61 168.85M730.61 168.85L730.61 169.39"
fill="none" stroke="RGB(63,255,0)" stroke-width="0.5"/>
<path d="M739.34 169.39L739.17 167.69M739.17 167.69L738.67 166.05M738.67 166.05L737.86 164.54M737.86 164.54L736.78 163.22M736.78 163.22L735.46 162.14M735.46 162.14L733.95 161.33M733.95 161.33L732.31 160.83M732.31 160.83L730.61 160.67"
fill="none" stroke="RGB(63,255,0)" stroke-width="0.5"/>
<path d="M730.61 208.77L739.34 208.77M739.34 208.77L739.34 208.23M739.34 208.23L730.61 208.23M730.61 208.23L730.61 208.77"
fill="none" stroke="RGB(63,255,0)" stroke-width="0.5"/>
<path d="M739.34 208.77L739.17 207.07M739.17 207.07L738.67 205.43M738.67 205.43L737.86 203.93M737.86 203.93L736.78 202.6M736.78 202.6L735.46 201.52M735.46 201.52L733.95 200.71M733.95 200.71L732.31 200.21M732.31 200.21L730.61 200.05"
fill="none" stroke="RGB(63,255,0)" stroke-width="0.5"/>
<path d="M749.15 343.72L749.32 345.42M749.32 345.42L749.82 347.06M749.82 347.06L750.62 348.57M750.62 348.57L751.71 349.89M751.71 349.89L753.03 350.97M753.03 350.97L754.54 351.78M754.54 351.78L756.18 352.28M756.18 352.28L757.88 352.45"
fill="none" stroke="RGB(63,255,0)" stroke-width="0.5"/>
<path d="M749.15 361.17L757.88 361.17M757.88 361.17L757.88 360.63M757.88 360.63L749.15 360.63M749.15 360.63L749.15 361.17"
fill="none" stroke="RGB(63,255,0)" stroke-width="0.5"/>
<path d="M757.88 352.45L756.18 352.61M756.18 352.61L754.54 353.11M754.54 353.11L753.03 353.92M753.03 353.92L751.71 355M751.71 355L750.62 356.32M750.62 356.32L749.82 357.83M749.82 357.83L749.32 359.47M749.32 359.47L749.15 361.17"
fill="none" stroke="RGB(63,255,0)" stroke-width="0.5"/>
<path d="M749.15 344.26L757.88 344.26M757.88 344.26L757.88 343.72M757.88 343.72L749.15 343.72M749.15 343.72L749.15 344.26"
fill="none" stroke="RGB(63,255,0)" stroke-width="0.5"/>
<path d="M144.42 196.69L145.5 194.62M145.5 194.62L146.29 192.42M146.29 192.42L146.75 190.13M146.75 190.13L146.88 187.8M146.88 187.8L146.67 185.47M146.67 185.47L146.14 183.2M146.14 183.2L145.29 181.03M145.29 181.03L144.14 179M144.14 179L142.71 177.15M142.71 177.15L141.03 175.52M141.03 175.52L139.14 174.15"
fill="none" stroke="RGB(63,255,0)" stroke-width="0.5"/>
<path d="M139.14 174.15L141.21 175.24M141.21 175.24L143.41 176.02M143.41 176.02L145.7 176.48M145.7 176.48L148.03 176.61M148.03 176.61L150.36 176.41M150.36 176.41L152.63 175.88M152.63 175.88L154.8 175.03M154.8 175.03L156.84 173.88M156.84 173.88L158.68 172.45M158.68 172.45L160.31 170.77M160.31 170.77L161.68 168.88"
fill="none" stroke="RGB(63,255,0)" stroke-width="0.5"/>
<path d="M161.68 168.88L147.77 160.25"
fill="none" stroke="RGB(63,255,0)" stroke-width="0.5"/>
<path d="M161.38 169.34L147.49 160.71"
fill="none" stroke="RGB(63,255,0)" stroke-width="0.5"/>
<path d="M144.7 196.22L130.8 187.59"
fill="none" stroke="RGB(63,255,0)" stroke-width="0.5"/>
<path d="M742.61 78.54L742.77 80.87M742.77 80.87L743.27 83.15M743.27 83.15L744.09 85.34M744.09 85.34L745.21 87.39M745.21 87.39L746.6 89.26M746.6 89.26L748.26 90.91M748.26 90.91L750.12 92.31M750.12 92.31L752.17 93.43M752.17 93.43L754.36 94.25M754.36 94.25L756.64 94.74M756.64 94.74L758.97 94.91"
fill="none" stroke="RGB(63,255,0)" stroke-width="0.5"/>
<path d="M758.97 94.91L756.64 95.07M756.64 95.07L754.36 95.57M754.36 95.57L752.17 96.39M752.17 96.39L750.12 97.51M750.12 97.51L748.26 98.9M748.26 98.9L746.6 100.56M746.6 100.56L745.21 102.42M745.21 102.42L744.09 104.47M744.09 104.47L743.27 106.66M743.27 106.66L742.77 108.94M742.77 108.94L742.61 111.27"
fill="none" stroke="RGB(63,255,0)" stroke-width="0.5"/>
<path d="M758.97 79.09L742.62 79.09"
fill="none" stroke="RGB(63,255,0)" stroke-width="0.5"/>
<path d="M758.97 78.54L742.61 78.54"
fill="none" stroke="RGB(63,255,0)" stroke-width="0.5"/>
<path d="M758.97 111.27L742.61 111.27"
fill="none" stroke="RGB(63,255,0)" stroke-width="0.5"/>
<path d="M758.97 110.73L742.62 110.73"
fill="none" stroke="RGB(63,255,0)" stroke-width="0.5"/>
<path d="M170.98 378.08L172.68 377.91M172.68 377.91L174.32 377.42M174.32 377.42L175.83 376.61M175.83 376.61L177.15 375.53M177.15 375.53L178.23 374.2M178.23 374.2L179.04 372.69M179.04 372.69L179.54 371.06M179.54 371.06L179.7 369.35"
fill="none" stroke="RGB(63,255,0)" stroke-width="0.5"/>
<path d="M179.7 369.35L179.87 371.06M179.87 371.06L180.37 372.69M180.37 372.69L181.18 374.2M181.18 374.2L182.26 375.53M182.26 375.53L183.58 376.61M183.58 376.61L185.09 377.42M185.09 377.42L186.73 377.91M186.73 377.91L188.43 378.08"
fill="none" stroke="RGB(63,255,0)" stroke-width="0.5"/>
<path d="M170.98 369.35L171.52 369.35M171.52 369.35L171.52 378.08M171.52 378.08L170.98 378.08M170.98 378.08L170.98 369.35"
fill="none" stroke="RGB(63,255,0)" stroke-width="0.5"/>
<path d="M187.89 369.35L188.43 369.35M188.43 369.35L188.43 378.08M188.43 378.08L187.89 378.08M187.89 378.08L187.89 369.35"
fill="none" stroke="RGB(63,255,0)" stroke-width="0.5"/>
<path d="M187.89 423.35L188.43 423.35M188.43 423.35L188.43 414.63M188.43 414.63L187.89 414.63M187.89 414.63L187.89 423.35"
fill="none" stroke="RGB(63,255,0)" stroke-width="0.5"/>
<path d="M188.43 414.63L186.73 414.79M186.73 414.79L185.09 415.29M185.09 415.29L183.58 416.1M183.58 416.1L182.26 417.18M182.26 417.18L181.18 418.51M181.18 418.51L180.37 420.01M180.37 420.01L179.87 421.65M179.87 421.65L179.7 423.35"
fill="none" stroke="RGB(63,255,0)" stroke-width="0.5"/>
<path d="M170.98 423.35L171.52 423.35M171.52 423.35L171.52 414.63M171.52 414.63L170.98 414.63M170.98 414.63L170.98 423.35"
fill="none" stroke="RGB(63,255,0)" stroke-width="0.5"/>
<path d="M179.7 423.35L179.54 421.65M179.54 421.65L179.04 420.01M179.04 420.01L178.23 418.51M178.23 418.51L177.15 417.18M177.15 417.18L175.83 416.1M175.83 416.1L174.32 415.29M174.32 415.29L172.68 414.79M172.68 414.79L170.98 414.63"
fill="none" stroke="RGB(63,255,0)" stroke-width="0.5"/>
<path d="M146.44 406.78L137.17 406.78M137.17 406.78L137.17 406.23M137.17 406.23L146.44 406.23M146.44 406.23L146.44 406.78"
fill="none" stroke="RGB(63,255,0)" stroke-width="0.5"/>
<path d="M146.44 396.92L144.63 397.27M144.63 397.27L142.92 397.94M142.92 397.94L141.35 398.9M141.35 398.9L139.97 400.12M139.97 400.12L138.83 401.57M138.83 401.57L137.97 403.2M137.97 403.2L137.41 404.95M137.41 404.95L137.17 406.78"
fill="none" stroke="RGB(63,255,0)" stroke-width="0.5"/>
<path d="M137.17 387.68L137.34 389.49M137.34 389.49L137.87 391.23M137.87 391.23L138.72 392.83M138.72 392.83L139.88 394.24M139.88 394.24L141.28 395.38M141.28 395.38L142.89 396.24M142.89 396.24L144.63 396.75M144.63 396.75L146.44 396.92"
fill="none" stroke="RGB(63,255,0)" stroke-width="0.5"/>
<path d="M146.44 387.68L137.17 387.68M137.17 387.68L137.17 388.23M137.17 388.23L146.44 388.23M146.44 388.23L146.44 387.68"
fill="none" stroke="RGB(63,255,0)" stroke-width="0.5"/>
<path d="M319.91 286.45L318.31 286.6M318.31 286.6L316.77 287.07M316.77 287.07L315.36 287.83M315.36 287.83L314.12 288.84M314.12 288.84L313.1 290.08M313.1 290.08L312.35 291.5M312.35 291.5L311.88 293.03M311.88 293.03L311.72 294.63"
fill="none" stroke="RGB(63,255,0)" stroke-width="0.5"/>
<path d="M311.73 294.63L311.57 293.03M311.57 293.03L311.11 291.5M311.11 291.5L310.35 290.08M310.35 290.08L309.33 288.84M309.33 288.84L308.09 287.83M308.09 287.83L306.68 287.07M306.68 287.07L305.14 286.6M305.14 286.6L303.55 286.45"
fill="none" stroke="RGB(63,255,0)" stroke-width="0.5"/>
<path d="M303.55 286.45L303.55 294.63M303.55 294.63L304.09 294.63M304.09 294.63L304.09 286.47"
fill="none" stroke="RGB(63,255,0)" stroke-width="0.5"/>
<path d="M319.35 286.46L319.35 294.63M319.35 294.63L319.89 294.63M319.89 294.63L319.89 286.45"
fill="none" stroke="RGB(63,255,0)" stroke-width="0.5"/>
</svg>
