<?xml version="1.0" encoding="UTF-8"?>
<svg xmlns="http://www.w3.org/2000/svg" width="800.000" height="600.000" viewBox="0.0 0.0 800.000 600.000" version="1.1">
  <title>Produce by Acme CAD Converter</title>
  <desc>Produce by Acme CAD Converter</desc>
<path d="M486.79 497.54L523.06 497.54"
fill="none" stroke="fuchsia" stroke-width="0.5"/>
<path d="M486.25 498.08L523.61 498.08"
fill="none" stroke="fuchsia" stroke-width="0.5"/>
<path d="M486.25 496.99L523.61 496.99"
fill="none" stroke="fuchsia" stroke-width="0.5"/>
<path d="M523.61 499.72L486.25 499.72"
fill="none" stroke="fuchsia" stroke-width="0.5"/>
<path d="M320.43 499.72L283.89 499.72"
fill="none" stroke="fuchsia" stroke-width="0.5"/>
<path d="M284.35 497.54L319.88 497.54"
fill="none" stroke="fuchsia" stroke-width="0.5"/>
<path d="M284.35 496.99L319.88 496.99"
fill="none" stroke="fuchsia" stroke-width="0.5"/>
<path d="M283.89 498.08L320.43 498.08"
fill="none" stroke="fuchsia" stroke-width="0.5"/>
<path d="M283.89 496.99L320.43 496.99"
fill="none" stroke="fuchsia" stroke-width="0.5"/>
<path d="M284.35 496.99L284.35 498.08"
fill="none" stroke="fuchsia" stroke-width="0.5"/>
<path d="M280.07 498.08L280.07 496.99"
fill="none" stroke="fuchsia" stroke-width="0.5"/>
<path d="M244.61 496.99L244.61 498.08"
fill="none" stroke="fuchsia" stroke-width="0.5"/>
<path d="M244.07 498.08L280.61 498.08"
fill="none" stroke="fuchsia" stroke-width="0.5"/>
<path d="M280.07 497.54L244.61 497.54"
fill="none" stroke="fuchsia" stroke-width="0.5"/>
<path d="M244.07 496.99L280.61 496.99"
fill="none" stroke="fuchsia" stroke-width="0.5"/>
<path d="M244.61 496.99L280.07 496.99"
fill="none" stroke="fuchsia" stroke-width="0.5"/>
<path d="M280.61 499.72L244.07 499.72"
fill="none" stroke="fuchsia" stroke-width="0.5"/>
<path d="M365.98 496.99L403.34 496.99"
fill="none" stroke="fuchsia" stroke-width="0.5"/>
<path d="M403.34 499.72L365.98 499.72"
fill="none" stroke="fuchsia" stroke-width="0.5"/>
<path d="M365.98 498.08L403.34 498.08"
fill="none" stroke="fuchsia" stroke-width="0.5"/>
<path d="M366.52 497.54L402.79 497.54"
fill="none" stroke="fuchsia" stroke-width="0.5"/>
<path d="M325.88 497.54L362.7 497.54"
fill="none" stroke="fuchsia" stroke-width="0.5"/>
<path d="M325.34 498.08L363.25 498.08"
fill="none" stroke="fuchsia" stroke-width="0.5"/>
<path d="M325.34 496.99L363.25 496.99"
fill="none" stroke="fuchsia" stroke-width="0.5"/>
<path d="M363.25 499.72L325.34 499.72"
fill="none" stroke="fuchsia" stroke-width="0.5"/>
<path d="M319.88 498.08L319.88 496.99"
fill="none" stroke="fuchsia" stroke-width="0.5"/>
<path d="M366.52 496.99L366.52 498.08"
fill="none" stroke="fuchsia" stroke-width="0.5"/>
<path d="M362.7 498.08L362.7 496.99"
fill="none" stroke="fuchsia" stroke-width="0.5"/>
<path d="M446.7 497.54L482.97 497.54"
fill="none" stroke="fuchsia" stroke-width="0.5"/>
<path d="M446.16 496.99L483.52 496.99"
fill="none" stroke="fuchsia" stroke-width="0.5"/>
<path d="M483.52 499.72L446.16 499.72"
fill="none" stroke="fuchsia" stroke-width="0.5"/>
<path d="M446.16 498.08L483.52 498.08"
fill="none" stroke="fuchsia" stroke-width="0.5"/>
<path d="M446.7 496.99L446.7 498.08"
fill="none" stroke="fuchsia" stroke-width="0.5"/>
<path d="M442.88 498.08L442.88 496.99"
fill="none" stroke="fuchsia" stroke-width="0.5"/>
<path d="M402.79 498.08L402.79 496.99"
fill="none" stroke="fuchsia" stroke-width="0.5"/>
<path d="M406.61 496.99L406.61 498.08"
fill="none" stroke="fuchsia" stroke-width="0.5"/>
<path d="M406.61 497.54L442.88 497.54"
fill="none" stroke="fuchsia" stroke-width="0.5"/>
<path d="M406.07 498.08L443.43 498.08"
fill="none" stroke="fuchsia" stroke-width="0.5"/>
<path d="M406.07 496.99L443.43 496.99"
fill="none" stroke="fuchsia" stroke-width="0.5"/>
<path d="M443.43 499.72L406.07 499.72"
fill="none" stroke="fuchsia" stroke-width="0.5"/>
<path d="M486.79 496.99L486.79 498.08"
fill="none" stroke="fuchsia" stroke-width="0.5"/>
<path d="M482.97 498.08L482.97 496.99"
fill="none" stroke="fuchsia" stroke-width="0.5"/>
<path d="M607.06 497.54L643.34 497.54"
fill="none" stroke="fuchsia" stroke-width="0.5"/>
<path d="M606.52 498.08L643.88 498.08"
fill="none" stroke="fuchsia" stroke-width="0.5"/>
<path d="M606.52 496.99L643.88 496.99"
fill="none" stroke="fuchsia" stroke-width="0.5"/>
<path d="M643.88 499.72L606.52 499.72"
fill="none" stroke="fuchsia" stroke-width="0.5"/>
<path d="M566.43 498.08L603.79 498.08"
fill="none" stroke="fuchsia" stroke-width="0.5"/>
<path d="M603.79 499.72L566.43 499.72"
fill="none" stroke="fuchsia" stroke-width="0.5"/>
<path d="M566.43 496.99L603.79 496.99"
fill="none" stroke="fuchsia" stroke-width="0.5"/>
<path d="M566.97 497.54L603.25 497.54"
fill="none" stroke="fuchsia" stroke-width="0.5"/>
<path d="M563.16 498.08L563.16 496.99"
fill="none" stroke="fuchsia" stroke-width="0.5"/>
<path d="M566.97 496.99L566.97 498.08"
fill="none" stroke="fuchsia" stroke-width="0.5"/>
<path d="M526.88 496.99L526.88 498.08"
fill="none" stroke="fuchsia" stroke-width="0.5"/>
<path d="M523.06 498.08L523.06 496.99"
fill="none" stroke="fuchsia" stroke-width="0.5"/>
<path d="M526.34 496.99L563.7 496.99"
fill="none" stroke="fuchsia" stroke-width="0.5"/>
<path d="M526.34 498.08L563.7 498.08"
fill="none" stroke="fuchsia" stroke-width="0.5"/>
<path d="M526.88 497.54L563.16 497.54"
fill="none" stroke="fuchsia" stroke-width="0.5"/>
<path d="M563.7 499.72L526.34 499.72"
fill="none" stroke="fuchsia" stroke-width="0.5"/>
<path d="M607.06 496.99L607.06 498.08"
fill="none" stroke="fuchsia" stroke-width="0.5"/>
<path d="M603.25 498.08L603.25 496.99"
fill="none" stroke="fuchsia" stroke-width="0.5"/>
<path d="M685.34 470.43L686.43 470.43"
fill="none" stroke="fuchsia" stroke-width="0.5"/>
<path d="M685.34 455.15L686.43 455.15"
fill="none" stroke="fuchsia" stroke-width="0.5"/>
<path d="M686.43 454.61L686.43 470.97"
fill="none" stroke="fuchsia" stroke-width="0.5"/>
<path d="M685.88 455.15L685.88 470.43"
fill="none" stroke="fuchsia" stroke-width="0.5"/>
<path d="M685.34 454.61L685.34 470.97"
fill="none" stroke="fuchsia" stroke-width="0.5"/>
<path d="M643.34 498.08L643.34 496.99"
fill="none" stroke="fuchsia" stroke-width="0.5"/>
<path d="M688.06 470.97L688.06 454.61"
fill="none" stroke="fuchsia" stroke-width="0.5"/>
<path d="M685.34 420.15L686.43 420.15"
fill="none" stroke="fuchsia" stroke-width="0.5"/>
<path d="M685.34 435.42L686.43 435.42"
fill="none" stroke="fuchsia" stroke-width="0.5"/>
<path d="M685.88 420.15L685.88 435.42"
fill="none" stroke="fuchsia" stroke-width="0.5"/>
<path d="M686.43 419.6L686.43 435.96"
fill="none" stroke="fuchsia" stroke-width="0.5"/>
<path d="M685.34 419.6L685.34 435.96"
fill="none" stroke="fuchsia" stroke-width="0.5"/>
<path d="M711.57 412.45L711.57 413.54"
fill="none" stroke="fuchsia" stroke-width="0.5"/>
<path d="M696.3 412.45L696.3 413.54"
fill="none" stroke="fuchsia" stroke-width="0.5"/>
<path d="M696.3 412.99L711.57 412.99"
fill="none" stroke="fuchsia" stroke-width="0.5"/>
<path d="M695.76 413.54L712.12 413.54"
fill="none" stroke="fuchsia" stroke-width="0.5"/>
<path d="M712.12 415.17L695.76 415.17"
fill="none" stroke="fuchsia" stroke-width="0.5"/>
<path d="M695.76 412.45L712.12 412.45"
fill="none" stroke="fuchsia" stroke-width="0.5"/>
<path d="M688.06 435.96L688.06 419.6"
fill="none" stroke="fuchsia" stroke-width="0.5"/>
<path d="M757.88 385.39L758.97 385.39"
fill="none" stroke="fuchsia" stroke-width="0.5"/>
<path d="M757.88 400.66L758.97 400.66"
fill="none" stroke="fuchsia" stroke-width="0.5"/>
<path d="M757.88 401.21L757.88 384.84"
fill="none" stroke="fuchsia" stroke-width="0.5"/>
<path d="M758.97 401.21L758.97 384.84"
fill="none" stroke="fuchsia" stroke-width="0.5"/>
<path d="M758.43 400.66L758.43 385.39"
fill="none" stroke="fuchsia" stroke-width="0.5"/>
<path d="M303.55 294.63L283.61 294.63"
fill="none" stroke="fuchsia" stroke-width="0.5"/>
<path d="M284.48 296.81L303 296.81"
fill="none" stroke="fuchsia" stroke-width="0.5"/>
<path d="M283.88 296.26L303 296.26"
fill="none" stroke="fuchsia" stroke-width="0.5"/>
<path d="M283.88 297.36L303 297.36"
fill="none" stroke="fuchsia" stroke-width="0.5"/>
<path d="M284.48 297.36L284.48 296.26"
fill="none" stroke="fuchsia" stroke-width="0.5"/>
<path d="M280.07 296.31L280.07 297.36"
fill="none" stroke="fuchsia" stroke-width="0.5"/>
<path d="M244.57 297.36L244.57 296.31"
fill="none" stroke="fuchsia" stroke-width="0.5"/>
<path d="M244.57 296.82L280.07 296.85"
fill="none" stroke="fuchsia" stroke-width="0.5"/>
<path d="M244.07 297.36L280.61 297.36"
fill="none" stroke="fuchsia" stroke-width="0.5"/>
<path d="M280.61 294.63L244.07 294.63"
fill="none" stroke="fuchsia" stroke-width="0.5"/>
<path d="M244.07 296.31L280.61 296.31"
fill="none" stroke="fuchsia" stroke-width="0.5"/>
<path d="M366.52 296.81L402.79 296.81"
fill="none" stroke="fuchsia" stroke-width="0.5"/>
<path d="M365.98 296.26L403.34 296.26"
fill="none" stroke="fuchsia" stroke-width="0.5"/>
<path d="M403.34 294.63L365.98 294.63"
fill="none" stroke="fuchsia" stroke-width="0.5"/>
<path d="M365.98 297.36L403.34 297.36"
fill="none" stroke="fuchsia" stroke-width="0.5"/>
<path d="M326.43 297.36L326.43 296.26"
fill="none" stroke="fuchsia" stroke-width="0.5"/>
<path d="M366.52 297.36L366.52 296.26"
fill="none" stroke="fuchsia" stroke-width="0.5"/>
<path d="M362.7 296.26L362.7 297.36"
fill="none" stroke="fuchsia" stroke-width="0.5"/>
<path d="M326.43 297.36L326.43 296.26"
fill="none" stroke="fuchsia" stroke-width="0.5"/>
<path d="M325.88 297.36L363.25 297.36"
fill="none" stroke="fuchsia" stroke-width="0.5"/>
<path d="M326.43 296.81L362.7 296.81"
fill="none" stroke="fuchsia" stroke-width="0.5"/>
<path d="M325.88 297.36L363.25 297.36"
fill="none" stroke="fuchsia" stroke-width="0.5"/>
<path d="M326.43 296.81L362.7 296.81"
fill="none" stroke="fuchsia" stroke-width="0.5"/>
<path d="M363.25 294.63L325.88 294.63"
fill="none" stroke="fuchsia" stroke-width="0.5"/>
<path d="M325.88 296.26L363.25 296.26"
fill="none" stroke="fuchsia" stroke-width="0.5"/>
<path d="M363.25 294.63L325.88 294.63"
fill="none" stroke="fuchsia" stroke-width="0.5"/>
<path d="M325.88 296.26L363.25 296.26"
fill="none" stroke="fuchsia" stroke-width="0.5"/>
<path d="M446.7 297.36L446.7 296.26"
fill="none" stroke="fuchsia" stroke-width="0.5"/>
<path d="M442.88 296.26L442.88 297.36"
fill="none" stroke="fuchsia" stroke-width="0.5"/>
<path d="M482.97 296.26L482.97 297.36"
fill="none" stroke="fuchsia" stroke-width="0.5"/>
<path d="M402.79 296.26L402.79 297.36"
fill="none" stroke="fuchsia" stroke-width="0.5"/>
<path d="M406.61 297.36L406.61 296.26"
fill="none" stroke="fuchsia" stroke-width="0.5"/>
<path d="M446.7 296.81L482.97 296.81"
fill="none" stroke="fuchsia" stroke-width="0.5"/>
<path d="M446.16 297.36L483.52 297.36"
fill="none" stroke="fuchsia" stroke-width="0.5"/>
<path d="M406.07 297.36L443.43 297.36"
fill="none" stroke="fuchsia" stroke-width="0.5"/>
<path d="M406.61 296.81L442.88 296.81"
fill="none" stroke="fuchsia" stroke-width="0.5"/>
<path d="M446.16 296.26L483.52 296.26"
fill="none" stroke="fuchsia" stroke-width="0.5"/>
<path d="M483.52 294.63L446.16 294.63"
fill="none" stroke="fuchsia" stroke-width="0.5"/>
<path d="M443.43 294.63L406.07 294.63"
fill="none" stroke="fuchsia" stroke-width="0.5"/>
<path d="M406.07 296.26L443.43 296.26"
fill="none" stroke="fuchsia" stroke-width="0.5"/>
<path d="M564.79 255.27L564.79 291.9"
fill="none" stroke="fuchsia" stroke-width="0.5"/>
<path d="M565.34 255.82L565.34 291.36"
fill="none" stroke="fuchsia" stroke-width="0.5"/>
<path d="M565.88 255.27L565.88 291.9"
fill="none" stroke="fuchsia" stroke-width="0.5"/>
<path d="M563.16 291.9L563.16 255.27"
fill="none" stroke="fuchsia" stroke-width="0.5"/>
<path d="M687.24 295.17L687.24 302.81"
fill="none" stroke="fuchsia" stroke-width="0.5"/>
<path d="M688.09 295.17L688.09 302.81"
fill="none" stroke="fuchsia" stroke-width="0.5"/>
<path d="M686.43 295.17L686.43 302.81"
fill="none" stroke="fuchsia" stroke-width="0.5"/>
<path d="M687.66 295.17L687.66 302.81"
fill="none" stroke="fuchsia" stroke-width="0.5"/>
<path d="M696.24 289.72L688.61 289.72"
fill="none" stroke="fuchsia" stroke-width="0.5"/>
<path d="M696.79 289.17L688.06 289.17"
fill="none" stroke="fuchsia" stroke-width="0.5"/>
<path d="M696.24 290.26L696.24 289.17"
fill="none" stroke="fuchsia" stroke-width="0.5"/>
<path d="M688.61 290.26L688.61 289.17"
fill="none" stroke="fuchsia" stroke-width="0.5"/>
<path d="M696.79 290.26L688.06 290.26"
fill="none" stroke="fuchsia" stroke-width="0.5"/>
<path d="M696.24 289.95L688.61 289.95"
fill="none" stroke="fuchsia" stroke-width="0.5"/>
<path d="M565.34 137.76L565.34 173.29"
fill="none" stroke="fuchsia" stroke-width="0.5"/>
<path d="M564.79 137.21L564.79 173.84"
fill="none" stroke="fuchsia" stroke-width="0.5"/>
<path d="M565.88 137.21L565.88 173.84"
fill="none" stroke="fuchsia" stroke-width="0.5"/>
<path d="M563.16 173.84L563.16 137.21"
fill="none" stroke="fuchsia" stroke-width="0.5"/>
<path d="M565.34 177.11L565.34 212.65"
fill="none" stroke="fuchsia" stroke-width="0.5"/>
<path d="M564.79 176.57L564.79 213.19"
fill="none" stroke="fuchsia" stroke-width="0.5"/>
<path d="M563.16 213.19L563.16 176.57"
fill="none" stroke="fuchsia" stroke-width="0.5"/>
<path d="M758.43 228.96L758.43 213.68"
fill="none" stroke="fuchsia" stroke-width="0.5"/>
<path d="M758.97 229.5L758.97 213.14"
fill="none" stroke="fuchsia" stroke-width="0.5"/>
<path d="M757.88 229.5L757.88 213.14"
fill="none" stroke="fuchsia" stroke-width="0.5"/>
<path d="M758.43 307.72L758.43 292.45"
fill="none" stroke="fuchsia" stroke-width="0.5"/>
<path d="M758.97 308.26L758.97 291.9"
fill="none" stroke="fuchsia" stroke-width="0.5"/>
<path d="M757.88 308.26L757.88 291.9"
fill="none" stroke="fuchsia" stroke-width="0.5"/>
<path d="M757.88 307.72L758.97 307.72"
fill="none" stroke="fuchsia" stroke-width="0.5"/>
<path d="M757.88 228.96L758.97 228.96"
fill="none" stroke="fuchsia" stroke-width="0.5"/>
<path d="M757.88 292.45L758.97 292.45"
fill="none" stroke="fuchsia" stroke-width="0.5"/>
<path d="M757.88 253.06L758.97 253.06"
fill="none" stroke="fuchsia" stroke-width="0.5"/>
<path d="M757.88 268.34L758.97 268.34"
fill="none" stroke="fuchsia" stroke-width="0.5"/>
<path d="M758.97 268.88L758.97 252.52"
fill="none" stroke="fuchsia" stroke-width="0.5"/>
<path d="M758.43 268.34L758.43 253.06"
fill="none" stroke="fuchsia" stroke-width="0.5"/>
<path d="M757.88 268.88L757.88 252.52"
fill="none" stroke="fuchsia" stroke-width="0.5"/>
<path d="M757.88 174.3L758.97 174.3"
fill="none" stroke="fuchsia" stroke-width="0.5"/>
<path d="M757.88 189.57L758.97 189.57"
fill="none" stroke="fuchsia" stroke-width="0.5"/>
<path d="M757.88 213.68L758.97 213.68"
fill="none" stroke="fuchsia" stroke-width="0.5"/>
<path d="M758.43 189.57L758.43 174.3"
fill="none" stroke="fuchsia" stroke-width="0.5"/>
<path d="M758.97 190.12L758.97 173.76"
fill="none" stroke="fuchsia" stroke-width="0.5"/>
<path d="M757.88 190.12L757.88 173.76"
fill="none" stroke="fuchsia" stroke-width="0.5"/>
<path d="M758.43 151.39L758.43 136.12"
fill="none" stroke="fuchsia" stroke-width="0.5"/>
<path d="M758.97 151.94L758.97 135.58"
fill="none" stroke="fuchsia" stroke-width="0.5"/>
<path d="M757.88 151.94L757.88 135.58"
fill="none" stroke="fuchsia" stroke-width="0.5"/>
<path d="M757.88 151.39L758.97 151.39"
fill="none" stroke="fuchsia" stroke-width="0.5"/>
<path d="M757.88 136.12L758.97 136.12"
fill="none" stroke="fuchsia" stroke-width="0.5"/>
<path d="M244.63 376.45L269.72 376.45"
fill="none" stroke="fuchsia" stroke-width="0.5"/>
<path d="M244.63 376.99L269.72 376.99"
fill="none" stroke="fuchsia" stroke-width="0.5"/>
<path d="M325.88 496.99L325.88 498.08"
fill="none" stroke="fuchsia" stroke-width="0.5"/>
<path d="M244.09 375.9L270.27 375.9"
fill="none" stroke="fuchsia" stroke-width="0.5"/>
<path d="M275.72 376.99L300.81 376.99"
fill="none" stroke="fuchsia" stroke-width="0.5"/>
<path d="M275.72 376.45L300.81 376.45"
fill="none" stroke="fuchsia" stroke-width="0.5"/>
<path d="M275.72 375.9L275.72 376.51M275.72 376.92L275.72 377.54"
fill="none" stroke="fuchsia" stroke-width="0.5"/>
<path d="M300.81 375.9L300.81 376.51M300.81 376.92L300.81 377.54"
fill="none" stroke="fuchsia" stroke-width="0.5"/>
<path d="M244.07 418.41L270.27 418.41"
fill="none" stroke="fuchsia" stroke-width="0.5"/>
<path d="M244.63 417.32L269.72 417.32"
fill="none" stroke="fuchsia" stroke-width="0.5"/>
<path d="M244.63 417.86L269.72 417.86"
fill="none" stroke="fuchsia" stroke-width="0.5"/>
<path d="M244.63 418.41L244.63 416.77"
fill="none" stroke="fuchsia" stroke-width="0.5"/>
<path d="M269.72 418.41L269.72 416.77"
fill="none" stroke="fuchsia" stroke-width="0.5"/>
<path d="M300.81 418.41L300.81 416.77"
fill="none" stroke="fuchsia" stroke-width="0.5"/>
<path d="M275.72 418.41L275.72 416.77"
fill="none" stroke="fuchsia" stroke-width="0.5"/>
<path d="M275.72 417.86L300.81 417.86"
fill="none" stroke="fuchsia" stroke-width="0.5"/>
<path d="M275.72 417.32L300.81 417.32"
fill="none" stroke="fuchsia" stroke-width="0.5"/>
<path d="M243.53 333.4L243.57 297.9"
fill="none" stroke="fuchsia" stroke-width="0.5"/>
<path d="M244.07 333.9L244.07 297.36"
fill="none" stroke="fuchsia" stroke-width="0.5"/>
<path d="M241.34 297.36L241.34 333.9"
fill="none" stroke="fuchsia" stroke-width="0.5"/>
<path d="M243.02 333.9L243.02 297.36"
fill="none" stroke="fuchsia" stroke-width="0.5"/>
<path d="M243.02 458.77L244.07 458.77"
fill="none" stroke="fuchsia" stroke-width="0.5"/>
<path d="M244.07 494.27L243.02 494.27"
fill="none" stroke="fuchsia" stroke-width="0.5"/>
<path d="M243.02 494.77L243.02 458.23"
fill="none" stroke="fuchsia" stroke-width="0.5"/>
<path d="M241.34 458.23L241.34 494.77"
fill="none" stroke="fuchsia" stroke-width="0.5"/>
<path d="M244.07 494.77L244.07 458.23"
fill="none" stroke="fuchsia" stroke-width="0.5"/>
<path d="M243.53 494.27L243.57 458.77"
fill="none" stroke="fuchsia" stroke-width="0.5"/>
<path d="M181.61 296.81L217.89 296.81"
fill="none" stroke="fuchsia" stroke-width="0.5"/>
<path d="M181.07 296.26L218.43 296.26"
fill="none" stroke="fuchsia" stroke-width="0.5"/>
<path d="M218.43 294.63L181.07 294.63"
fill="none" stroke="fuchsia" stroke-width="0.5"/>
<path d="M181.07 297.36L218.43 297.36"
fill="none" stroke="fuchsia" stroke-width="0.5"/>
<path d="M181.61 297.36L181.61 296.26"
fill="none" stroke="fuchsia" stroke-width="0.5"/>
<path d="M177.8 296.26L177.8 297.36"
fill="none" stroke="fuchsia" stroke-width="0.5"/>
<path d="M141.52 297.36L141.52 296.26"
fill="none" stroke="fuchsia" stroke-width="0.5"/>
<path d="M140.98 297.36L178.34 297.36"
fill="none" stroke="fuchsia" stroke-width="0.5"/>
<path d="M141.52 296.81L177.8 296.81"
fill="none" stroke="fuchsia" stroke-width="0.5"/>
<path d="M140.98 297.36L178.34 297.36"
fill="none" stroke="fuchsia" stroke-width="0.5"/>
<path d="M141.52 296.81L177.8 296.81"
fill="none" stroke="fuchsia" stroke-width="0.5"/>
<path d="M178.34 294.63L140.98 294.63"
fill="none" stroke="fuchsia" stroke-width="0.5"/>
<path d="M140.98 296.26L178.34 296.26"
fill="none" stroke="fuchsia" stroke-width="0.5"/>
<path d="M178.34 294.63L140.98 294.63"
fill="none" stroke="fuchsia" stroke-width="0.5"/>
<path d="M140.98 296.26L178.34 296.26"
fill="none" stroke="fuchsia" stroke-width="0.5"/>
<path d="M217.89 296.26L217.89 297.36"
fill="none" stroke="fuchsia" stroke-width="0.5"/>
<path d="M181.07 496.99L218.43 496.99"
fill="none" stroke="fuchsia" stroke-width="0.5"/>
<path d="M218.43 499.72L181.07 499.72"
fill="none" stroke="fuchsia" stroke-width="0.5"/>
<path d="M181.07 498.08L218.43 498.08"
fill="none" stroke="fuchsia" stroke-width="0.5"/>
<path d="M181.61 497.54L217.89 497.54"
fill="none" stroke="fuchsia" stroke-width="0.5"/>
<path d="M140.98 497.54L177.8 497.54"
fill="none" stroke="fuchsia" stroke-width="0.5"/>
<path d="M140.43 498.08L178.34 498.08"
fill="none" stroke="fuchsia" stroke-width="0.5"/>
<path d="M140.43 496.99L178.34 496.99"
fill="none" stroke="fuchsia" stroke-width="0.5"/>
<path d="M178.34 499.72L140.43 499.72"
fill="none" stroke="fuchsia" stroke-width="0.5"/>
<path d="M181.61 496.99L181.61 498.08"
fill="none" stroke="fuchsia" stroke-width="0.5"/>
<path d="M177.8 498.08L177.8 496.99"
fill="none" stroke="fuchsia" stroke-width="0.5"/>
<path d="M217.89 498.08L217.89 496.99"
fill="none" stroke="fuchsia" stroke-width="0.5"/>
<path d="M149.17 387.1L149.17 377.29"
fill="none" stroke="fuchsia" stroke-width="0.5"/>
<path d="M146.44 387.65L146.44 377.29"
fill="none" stroke="fuchsia" stroke-width="0.5"/>
<path d="M148.08 387.1L148.08 377.29"
fill="none" stroke="fuchsia" stroke-width="0.5"/>
<path d="M148.08 406.74L148.08 416.56"
fill="none" stroke="fuchsia" stroke-width="0.5"/>
<path d="M149.17 406.74L149.17 416.56"
fill="none" stroke="fuchsia" stroke-width="0.5"/>
<path d="M146.44 417.14L146.44 407.32"
fill="none" stroke="fuchsia" stroke-width="0.5"/>
<path d="M140.98 497.54L140.98 496.99"
fill="none" stroke="fuchsia" stroke-width="0.5"/>
<path d="M140.98 496.99L140.98 499.72"
fill="none" stroke="fuchsia" stroke-width="0.5"/>
<path d="M275.18 375.9L301.36 375.9"
fill="none" stroke="fuchsia" stroke-width="0.5"/>
<path d="M301.36 377.54L275.18 377.54"
fill="none" stroke="fuchsia" stroke-width="0.5"/>
<path d="M244.09 377.54L270.27 377.54"
fill="none" stroke="fuchsia" stroke-width="0.5"/>
<path d="M244.07 416.77L270.27 416.77"
fill="none" stroke="fuchsia" stroke-width="0.5"/>
<path d="M275.18 418.41L301.36 418.41"
fill="none" stroke="fuchsia" stroke-width="0.5"/>
<path d="M301.36 416.77L275.72 416.77"
fill="none" stroke="fuchsia" stroke-width="0.5"/>
<path d="M275.72 416.77L275.18 416.77"
fill="none" stroke="fuchsia" stroke-width="0.5"/>
<path d="M565.88 285.07L565.88 159.46"
fill="none" stroke="fuchsia" stroke-width="0.5"/>
</svg>
