<?xml version="1.0" encoding="UTF-8"?>
<svg xmlns="http://www.w3.org/2000/svg" width="800.000" height="600.000" viewBox="0.0 0.0 800.000 600.000" version="1.1">
  <title>Produce by Acme CAD Converter</title>
  <desc>Produce by Acme CAD Converter</desc>
<path d="M568.02 447.19L568.14 446.9M568.14 446.9L568.43 446.78M568.43 446.78L568.72 446.9M568.72 446.9L568.84 447.19M568.84 447.19L568.72 447.48M568.72 447.48L568.43 447.6M568.43 447.6L568.14 447.48M568.14 447.48L568.02 447.19"
fill="none" stroke="RGB(0,165,0)" stroke-width="0.5"/>
<path d="M244.34 444.92L244.46 444.63M244.46 444.63L244.75 444.51M244.75 444.51L245.04 444.63M245.04 444.63L245.16 444.92M245.16 444.92L245.04 445.21M245.04 445.21L244.75 445.33M244.75 445.33L244.46 445.21M244.46 445.21L244.34 444.92"
fill="none" stroke="RGB(0,165,0)" stroke-width="0.5"/>
<path d="M244.34 446.56L244.46 446.27M244.46 446.27L244.75 446.15M244.75 446.15L245.04 446.27M245.04 446.27L245.16 446.56M245.16 446.56L245.04 446.85M245.04 446.85L244.75 446.97M244.75 446.97L244.46 446.85M244.46 446.85L244.34 446.56"
fill="none" stroke="RGB(0,165,0)" stroke-width="0.5"/>
<path d="M244.22 444.44L245.24 444.44M245.24 444.44L245.24 447.01M245.24 447.01L244.22 447.01M244.22 447.01L244.22 444.44"
fill="none" stroke="RGB(0,165,0)" stroke-width="0.5"/>
<path d="M321.52 457.26L321.64 456.97M321.64 456.97L321.93 456.85M321.93 456.85L322.22 456.97M322.22 456.97L322.34 457.26M322.34 457.26L322.22 457.55M322.22 457.55L321.93 457.67M321.93 457.67L321.64 457.55M321.64 457.55L321.52 457.26"
fill="none" stroke="RGB(0,165,0)" stroke-width="0.5"/>
<path d="M321.52 458.89L321.64 458.6M321.64 458.6L321.93 458.49M321.93 458.49L322.22 458.6M322.22 458.6L322.34 458.89M322.34 458.89L322.22 459.18M322.22 459.18L321.93 459.3M321.93 459.3L321.64 459.18M321.64 459.18L321.52 458.89"
fill="none" stroke="RGB(0,165,0)" stroke-width="0.5"/>
<path d="M322.46 456.78L321.44 456.78M321.44 456.78L321.44 459.35M321.44 459.35L322.46 459.35M322.46 459.35L322.46 456.78"
fill="none" stroke="RGB(0,165,0)" stroke-width="0.5"/>
<path d="M321.52 337.09L321.64 336.8M321.64 336.8L321.93 336.68M321.93 336.68L322.22 336.8M322.22 336.8L322.34 337.09M322.34 337.09L322.22 337.38M322.22 337.38L321.93 337.5M321.93 337.5L321.64 337.38M321.64 337.38L321.52 337.09"
fill="none" stroke="RGB(0,165,0)" stroke-width="0.5"/>
<path d="M321.52 335.45L321.64 335.16M321.64 335.16L321.93 335.04M321.93 335.04L322.22 335.16M322.22 335.16L322.34 335.45M322.34 335.45L322.22 335.74M322.22 335.74L321.93 335.86M321.93 335.86L321.64 335.74M321.64 335.74L321.52 335.45"
fill="none" stroke="RGB(0,165,0)" stroke-width="0.5"/>
<path d="M322.46 337.57L321.44 337.57M321.44 337.57L321.44 334.99M321.44 334.99L322.46 334.99M322.46 334.99L322.46 337.57"
fill="none" stroke="RGB(0,165,0)" stroke-width="0.5"/>
<path d="M244.34 349.39L244.46 349.1M244.46 349.1L244.75 348.98M244.75 348.98L245.04 349.1M245.04 349.1L245.16 349.39M245.16 349.39L245.04 349.68M245.04 349.68L244.75 349.8M244.75 349.8L244.46 349.68M244.46 349.68L244.34 349.39"
fill="none" stroke="RGB(0,165,0)" stroke-width="0.5"/>
<path d="M244.34 347.75L244.46 347.46M244.46 347.46L244.75 347.34M244.75 347.34L245.04 347.46M245.04 347.46L245.16 347.75M245.16 347.75L245.04 348.04M245.04 348.04L244.75 348.16M244.75 348.16L244.46 348.04M244.46 348.04L244.34 347.75"
fill="none" stroke="RGB(0,165,0)" stroke-width="0.5"/>
<path d="M244.22 349.87L245.24 349.87M245.24 349.87L245.24 347.3M245.24 347.3L244.22 347.3M244.22 347.3L244.22 349.87"
fill="none" stroke="RGB(0,165,0)" stroke-width="0.5"/>
<path d="M140.73 446.28L135.81 446.28"
fill="none" stroke="RGB(0,165,0)" stroke-width="0.5"/>
<path d="M140.73 445.19L135.81 445.19"
fill="none" stroke="RGB(0,165,0)" stroke-width="0.5"/>
<path d="M135.81 444.97L135.81 446.5"
fill="none" stroke="RGB(0,165,0)" stroke-width="0.5"/>
<path d="M136.08 444.97L136.08 446.5"
fill="none" stroke="RGB(0,165,0)" stroke-width="0.5"/>
<path d="M136.35 444.97L136.35 446.5"
fill="none" stroke="RGB(0,165,0)" stroke-width="0.5"/>
<path d="M136.63 444.97L136.63 446.5"
fill="none" stroke="RGB(0,165,0)" stroke-width="0.5"/>
<path d="M136.9 444.97L136.9 446.5"
fill="none" stroke="RGB(0,165,0)" stroke-width="0.5"/>
<path d="M137.17 444.97L137.17 446.5"
fill="none" stroke="RGB(0,165,0)" stroke-width="0.5"/>
<path d="M218.68 476.89L222.92 476.89"
fill="none" stroke="RGB(0,165,0)" stroke-width="0.5"/>
<path d="M218.68 475.8L222.92 475.8"
fill="none" stroke="RGB(0,165,0)" stroke-width="0.5"/>
<path d="M222.92 475.59L222.92 477.11"
fill="none" stroke="RGB(0,165,0)" stroke-width="0.5"/>
<path d="M222.65 475.59L222.65 477.11"
fill="none" stroke="RGB(0,165,0)" stroke-width="0.5"/>
<path d="M222.38 475.59L222.38 477.11"
fill="none" stroke="RGB(0,165,0)" stroke-width="0.5"/>
<path d="M222.11 475.59L222.11 477.11"
fill="none" stroke="RGB(0,165,0)" stroke-width="0.5"/>
<path d="M221.83 475.59L221.83 477.11"
fill="none" stroke="RGB(0,165,0)" stroke-width="0.5"/>
<path d="M221.56 475.59L221.56 477.11"
fill="none" stroke="RGB(0,165,0)" stroke-width="0.5"/>
<path d="M140.73 347.56L135.81 347.56"
fill="none" stroke="RGB(0,165,0)" stroke-width="0.5"/>
<path d="M140.73 348.65L135.81 348.65"
fill="none" stroke="RGB(0,165,0)" stroke-width="0.5"/>
<path d="M135.81 348.87L135.81 347.34"
fill="none" stroke="RGB(0,165,0)" stroke-width="0.5"/>
<path d="M136.08 348.87L136.08 347.34"
fill="none" stroke="RGB(0,165,0)" stroke-width="0.5"/>
<path d="M136.35 348.87L136.35 347.34"
fill="none" stroke="RGB(0,165,0)" stroke-width="0.5"/>
<path d="M136.63 348.87L136.63 347.34"
fill="none" stroke="RGB(0,165,0)" stroke-width="0.5"/>
<path d="M136.9 348.87L136.9 347.34"
fill="none" stroke="RGB(0,165,0)" stroke-width="0.5"/>
<path d="M137.17 348.87L137.17 347.34"
fill="none" stroke="RGB(0,165,0)" stroke-width="0.5"/>
<path d="M218.68 318.03L222.97 318.03"
fill="none" stroke="RGB(0,165,0)" stroke-width="0.5"/>
<path d="M218.68 319.12L222.97 319.12"
fill="none" stroke="RGB(0,165,0)" stroke-width="0.5"/>
<path d="M222.97 319.34L222.97 317.81"
fill="none" stroke="RGB(0,165,0)" stroke-width="0.5"/>
<path d="M222.69 319.34L222.69 317.81"
fill="none" stroke="RGB(0,165,0)" stroke-width="0.5"/>
<path d="M222.42 319.34L222.42 317.81"
fill="none" stroke="RGB(0,165,0)" stroke-width="0.5"/>
<path d="M222.15 319.34L222.15 317.81"
fill="none" stroke="RGB(0,165,0)" stroke-width="0.5"/>
<path d="M221.88 319.34L221.88 317.81"
fill="none" stroke="RGB(0,165,0)" stroke-width="0.5"/>
<path d="M221.6 319.34L221.6 317.81"
fill="none" stroke="RGB(0,165,0)" stroke-width="0.5"/>
<path d="M757.58 283.69L761.83 283.69"
fill="none" stroke="RGB(0,165,0)" stroke-width="0.5"/>
<path d="M757.58 282.6L761.83 282.6"
fill="none" stroke="RGB(0,165,0)" stroke-width="0.5"/>
<path d="M761.83 282.38L761.83 283.91"
fill="none" stroke="RGB(0,165,0)" stroke-width="0.5"/>
<path d="M761.56 282.38L761.56 283.91"
fill="none" stroke="RGB(0,165,0)" stroke-width="0.5"/>
<path d="M761.28 282.38L761.28 283.91"
fill="none" stroke="RGB(0,165,0)" stroke-width="0.5"/>
<path d="M761.01 282.38L761.01 283.91"
fill="none" stroke="RGB(0,165,0)" stroke-width="0.5"/>
<path d="M760.74 282.38L760.74 283.91"
fill="none" stroke="RGB(0,165,0)" stroke-width="0.5"/>
<path d="M760.46 282.38L760.46 283.91"
fill="none" stroke="RGB(0,165,0)" stroke-width="0.5"/>
<path d="M726.24 412.44L726.24 416.69"
fill="none" stroke="RGB(0,165,0)" stroke-width="0.5"/>
<path d="M727.33 412.44L727.33 416.69"
fill="none" stroke="RGB(0,165,0)" stroke-width="0.5"/>
<path d="M727.55 416.69L726.02 416.69"
fill="none" stroke="RGB(0,165,0)" stroke-width="0.5"/>
<path d="M727.55 416.41L726.02 416.41"
fill="none" stroke="RGB(0,165,0)" stroke-width="0.5"/>
<path d="M727.55 416.14L726.02 416.14"
fill="none" stroke="RGB(0,165,0)" stroke-width="0.5"/>
<path d="M727.55 415.87L726.02 415.87"
fill="none" stroke="RGB(0,165,0)" stroke-width="0.5"/>
<path d="M727.55 415.6L726.02 415.6"
fill="none" stroke="RGB(0,165,0)" stroke-width="0.5"/>
<path d="M727.55 415.32L726.02 415.32"
fill="none" stroke="RGB(0,165,0)" stroke-width="0.5"/>
<path d="M584.56 499.72L584.56 496.99"
fill="none" stroke="RGB(0,165,0)" stroke-width="0.5"/>
<path d="M585.65 499.72L585.65 496.99"
fill="none" stroke="RGB(0,165,0)" stroke-width="0.5"/>
<path d="M586.23 500.11L583.99 500.11M583.99 500.11L583.99 499.72M583.99 499.72L586.23 499.72M586.23 499.72L586.23 500.11"
fill="none" stroke="RGB(0,165,0)" stroke-width="0.5"/>
<path d="M586.23 496.6L583.99 496.6M583.99 496.6L583.99 496.99M583.99 496.99L586.23 496.99M586.23 496.99L586.23 496.6"
fill="none" stroke="RGB(0,165,0)" stroke-width="0.5"/>
</svg>
