<?xml version="1.0" encoding="UTF-8"?>
<svg xmlns="http://www.w3.org/2000/svg" width="800.000" height="600.000" viewBox="0.0 0.0 800.000 600.000" version="1.1">
  <title>Produce by Acme CAD Converter</title>
  <desc>Produce by Acme CAD Converter</desc>
<path d="M147.49 160.71L147.77 160.25"
fill="none" stroke="red" stroke-width="0.5"/>
<path d="M130.51 188.06L130.8 187.59"
fill="none" stroke="red" stroke-width="0.5"/>
<path d="M144.42 196.69L130.51 188.06"
fill="none" stroke="red" stroke-width="0.5"/>
<path d="M753.52 426.08L698.97 426.08M698.97 426.08L698.97 497.89M698.97 497.89L688.06 497.89"
fill="none" stroke="red" stroke-width="0.5"/>
<path d="M494.43 133.59L494.43 282.6"
fill="none" stroke="red" stroke-width="0.5"/>
<path d="M563.16 133.59L494.43 133.59"
fill="none" stroke="red" stroke-width="0.5"/>
<path d="M758.97 79.09L758.97 78.54"
fill="none" stroke="red" stroke-width="0.5"/>
<path d="M759.52 78.54L759.52 58.06"
fill="none" stroke="red" stroke-width="0.5"/>
<path d="M758.97 78.54L758.97 58.06"
fill="none" stroke="red" stroke-width="0.5"/>
<path d="M759.52 78.54L758.97 78.54"
fill="none" stroke="red" stroke-width="0.5"/>
<path d="M758.97 111.27L758.97 131.76"
fill="none" stroke="red" stroke-width="0.5"/>
<path d="M759.52 111.27L759.52 131.75"
fill="none" stroke="red" stroke-width="0.5"/>
<path d="M759.52 111.27L758.97 111.27"
fill="none" stroke="red" stroke-width="0.5"/>
<path d="M758.97 110.73L758.97 111.27"
fill="none" stroke="red" stroke-width="0.5"/>
<path d="M130.51 188.06L149.05 199.56"
fill="none" stroke="red" stroke-width="0.5"/>
<path d="M55.72 308.55L74.26 320.06"
fill="none" stroke="red" stroke-width="0.5"/>
<path d="M102.57 274.45L149.05 199.56"
fill="none" stroke="red" stroke-width="0.5"/>
<path d="M80.75 324.08L80.75 361.3"
fill="none" stroke="red" stroke-width="0.5"/>
<path d="M80.75 361.3L102.57 361.3"
fill="none" stroke="red" stroke-width="0.5"/>
<path d="M102.57 361.3L102.57 274.45"
fill="none" stroke="red" stroke-width="0.5"/>
</svg>
